<?xml version="1.0" encoding="UTF-8"?>
<svg version="1.1" xmlns="http://www.w3.org/2000/svg" width="512" height="512">
<path d="M0 0 C15.84 0 31.68 0 48 0 C48 5.94 48 11.88 48 18 C49.4025 18.165 50.805 18.33 52.25 18.5 C64.32022357 20.69173969 77.19026544 25.96868489 87.125 33.1640625 C88.97374218 34.22648141 88.97374218 34.22648141 90.921875 33.46875 C93.66829795 31.52766912 95.90380989 29.28293196 98.25 26.875 C99.14203125 25.96492188 100.0340625 25.05484375 100.953125 24.1171875 C101.96632813 23.06917969 101.96632813 23.06917969 103 22 C107.83298806 26.02748053 112.38110004 30.24379413 116.80859375 34.7109375 C117.42017838 35.32393707 118.031763 35.93693665 118.66188049 36.56851196 C120.58947559 38.50164564 122.51353928 40.43824987 124.4375 42.375 C125.75432404 43.69684699 127.07137926 45.01846372 128.38867188 46.33984375 C131.59512373 49.55724299 134.79841629 52.77775681 138 56 C137.0402279 57.12565907 136.0796177 58.25060358 135.11865234 59.37524414 C134.58380219 60.00177383 134.04895203 60.62830353 133.49789429 61.27381897 C131.13334916 63.99873286 128.58039756 66.48104048 126 69 C127.34434875 72.5987182 128.9869445 75.96565492 130.76733398 79.36743164 C136.24935407 89.8973665 140.30935254 100.16546775 142 112 C147.94 112 153.88 112 160 112 C160 127.84 160 143.68 160 160 C154.06 160 148.12 160 142 160 C141.835 161.4025 141.67 162.805 141.5 164.25 C139.30826031 176.32022357 134.03131511 189.19026544 126.8359375 199.125 C125.77351859 200.97374218 125.77351859 200.97374218 126.53125 202.921875 C128.47233088 205.66829795 130.71706804 207.90380989 133.125 210.25 C134.03507813 211.14203125 134.94515625 212.0340625 135.8828125 212.953125 C136.58148438 213.62859375 137.28015625 214.3040625 138 215 C133.97251947 219.83298806 129.75620587 224.38110004 125.2890625 228.80859375 C124.67606293 229.42017838 124.06306335 230.031763 123.43148804 230.66188049 C121.49835436 232.58947559 119.56175013 234.51353928 117.625 236.4375 C116.30315301 237.75432404 114.98153628 239.07137926 113.66015625 240.38867188 C110.44275701 243.59512373 107.22224319 246.79841629 104 250 C102.87434093 249.0402279 101.74939642 248.0796177 100.62475586 247.11865234 C99.99822617 246.58380219 99.37169647 246.04895203 98.72618103 245.49789429 C96.00126714 243.13334916 93.51895952 240.58039756 91 238 C87.4012818 239.34434875 84.03434508 240.9869445 80.63256836 242.76733398 C70.1026335 248.24935407 59.83453225 252.30935254 48 254 C48 259.94 48 265.88 48 272 C32.16 272 16.32 272 0 272 C0 266.06 0 260.12 0 254 C-1.4025 253.835 -2.805 253.67 -4.25 253.5 C-16.32022357 251.30826031 -29.19026544 246.03131511 -39.125 238.8359375 C-40.97374218 237.77351859 -40.97374218 237.77351859 -42.921875 238.53125 C-45.66829795 240.47233088 -47.90380989 242.71706804 -50.25 245.125 C-51.14203125 246.03507813 -52.0340625 246.94515625 -52.953125 247.8828125 C-53.62859375 248.58148438 -54.3040625 249.28015625 -55 250 C-59.83298806 245.97251947 -64.38110004 241.75620587 -68.80859375 237.2890625 C-69.42017838 236.67606293 -70.031763 236.06306335 -70.66188049 235.43148804 C-72.58947559 233.49835436 -74.51353928 231.56175013 -76.4375 229.625 C-77.75432404 228.30315301 -79.07137926 226.98153628 -80.38867188 225.66015625 C-83.59512373 222.44275701 -86.79841629 219.22224319 -90 216 C-89.0402279 214.87434093 -88.0796177 213.74939642 -87.11865234 212.62475586 C-86.58380219 211.99822617 -86.04895203 211.37169647 -85.49789429 210.72618103 C-83.13334916 208.00126714 -80.58039756 205.51895952 -78 203 C-79.34434875 199.4012818 -80.9869445 196.03434508 -82.76733398 192.63256836 C-88.24935407 182.1026335 -92.30935254 171.83453225 -94 160 C-99.94 160 -105.88 160 -112 160 C-112 144.16 -112 128.32 -112 112 C-106.06 112 -100.12 112 -94 112 C-93.835 110.5975 -93.67 109.195 -93.5 107.75 C-91.30826031 95.67977643 -86.03131511 82.80973456 -78.8359375 72.875 C-77.77351859 71.02625782 -77.77351859 71.02625782 -78.53125 69.078125 C-80.47233088 66.33170205 -82.71706804 64.09619011 -85.125 61.75 C-86.03507812 60.85796875 -86.94515625 59.9659375 -87.8828125 59.046875 C-88.58148438 58.37140625 -89.28015625 57.6959375 -90 57 C-85.97251947 52.16701194 -81.75620587 47.61889996 -77.2890625 43.19140625 C-76.67606293 42.57982162 -76.06306335 41.968237 -75.43148804 41.33811951 C-73.49835436 39.41052441 -71.56175013 37.48646072 -69.625 35.5625 C-68.30315301 34.24567596 -66.98153628 32.92862074 -65.66015625 31.61132812 C-62.44275701 28.40487627 -59.22224319 25.20158371 -56 22 C-54.87434093 22.9597721 -53.74939642 23.9203823 -52.62475586 24.88134766 C-51.99822617 25.41619781 -51.37169647 25.95104797 -50.72618103 26.50210571 C-48.00126714 28.86665084 -45.51895952 31.41960244 -43 34 C-39.4012818 32.65565125 -36.03434508 31.0130555 -32.63256836 29.23266602 C-22.1026335 23.75064593 -11.83453225 19.69064746 0 18 C0 12.06 0 6.12 0 0 Z M-32.61328125 79.61962891 C-36.14344975 83.13363818 -39.16044063 86.91650522 -42 91 C-42.54140625 91.77730469 -43.0828125 92.55460937 -43.640625 93.35546875 C-54.7639234 110.57410996 -57.79454928 132.30044078 -54.3828125 152.3359375 C-51.38776164 164.76672381 -45.33794011 177.26128596 -37 187 C-36.52691406 187.62648437 -36.05382812 188.25296875 -35.56640625 188.8984375 C-25.38890195 201.74087434 -7.87274081 211.40395423 8.09765625 214.5625 C31.12928652 217.14462471 52.4744555 213.82503053 71.5 199.9375 C72.67744704 198.97132355 73.84449458 197.99231331 75 197 C75.63808594 196.50371094 76.27617187 196.00742188 76.93359375 195.49609375 C90.78130186 184.29375678 100.71743702 165.66456374 103 148 C104.97148155 123.63041737 99.49093466 101.91523422 83.68359375 82.96484375 C68.32126023 65.99248401 47.90586982 57.35982979 25.2578125 56.0546875 C3.48727678 55.52737349 -17.02583475 64.82485111 -32.61328125 79.61962891 Z " fill="#000000" transform="translate(232,16)"/>
<path d="M0 0 C4.22957528 3.91235714 6.53655197 6.59858546 7.5 12.3125 C6.9831665 12.67375977 6.46633301 13.03501953 5.93383789 13.40722656 C-5.20366926 21.19376684 -16.32683099 28.99987473 -27.42333984 36.84472656 C-30.94767516 39.33570986 -34.47394701 41.82394903 -38 44.3125 C-39.41667568 45.31248722 -40.83334236 46.31248722 -42.25 47.3125 C-45.08333333 49.3125 -47.91666667 51.3125 -50.75 53.3125 C-51.45133057 53.80758057 -52.15266113 54.30266113 -52.87524414 54.81274414 C-54.29100679 55.81205816 -55.70685957 56.8112445 -57.12280273 57.81030273 C-60.67905338 60.31975545 -64.23367808 62.83145297 -67.78515625 65.34765625 C-71.32355253 67.85427248 -74.86965126 70.34974024 -78.41796875 72.84228516 C-80.47409092 74.29420445 -82.51865706 75.7613331 -84.5625 77.23046875 C-113.86566533 98.1072795 -147.83130483 107.22606028 -183.67578125 101.2578125 C-188.74176178 100.29279399 -193.75706823 99.15476306 -198.76928711 97.94384766 C-219.89528791 93.05946338 -240.98725239 93.16711256 -262 98.5 C-262.69746338 98.67168701 -263.39492676 98.84337402 -264.11352539 99.02026367 C-272.63906671 101.32184296 -280.18930917 104.89045083 -288.5 108.3125 C-299.06 87.1925 -309.62 66.0725 -320.5 44.3125 C-317.33453218 41.14703218 -314.07900408 39.3299023 -310.1875 37.25 C-304.64392124 34.21669736 -299.40591944 30.99046862 -294.3125 27.25 C-271.57875776 10.66085804 -249.4545159 3.09077374 -221.04541016 6.6171875 C-210.28941665 8.55975808 -200.59027935 13.7273721 -190.9375 18.625 C-185.92079162 21.08774775 -182.25398692 21.43848591 -176.65527344 21.4543457 C-175.63491753 21.45955734 -175.63491753 21.45955734 -174.59394836 21.46487427 C-173.12020428 21.47221097 -171.6464493 21.47756744 -170.17269135 21.48116493 C-167.83454039 21.48835765 -165.49659601 21.50404583 -163.1585083 21.52250671 C-156.51178858 21.57483831 -149.86518296 21.62291604 -143.21826172 21.63842773 C-139.14799348 21.64854748 -135.07824757 21.67797168 -131.00818634 21.71974754 C-129.46299451 21.73200538 -127.91772875 21.73718838 -126.37248993 21.73494911 C-116.95165097 21.72465785 -109.61856728 21.81729168 -102.22265625 28.3125 C-101.40087891 29.3025 -101.40087891 29.3025 -100.5625 30.3125 C-99.99660156 30.9725 -99.43070313 31.6325 -98.84765625 32.3125 C-97.5 34.3125 -97.5 34.3125 -96.5 38.3125 C-119.93 38.3125 -143.36 38.3125 -167.5 38.3125 C-167.5 43.5925 -167.5 48.8725 -167.5 54.3125 C-157.17273206 54.24954158 -146.84576127 54.17409723 -136.51875877 54.07678509 C-131.72329775 54.03209387 -126.92792143 53.99283495 -122.13232422 53.96606445 C-117.50264803 53.94001908 -112.87329804 53.89960785 -108.24382401 53.84931374 C-106.47927539 53.83265338 -104.71467037 53.82113393 -102.95005417 53.81488609 C-100.47465727 53.80523588 -98.00009333 53.77716633 -95.52490234 53.74487305 C-94.79841492 53.74630814 -94.07192749 53.74774323 -93.32342529 53.7492218 C-87.16992498 53.63599063 -82.67945969 51.65577809 -78.125 47.59765625 C-77.53968506 47.08259521 -76.95437012 46.56753418 -76.35131836 46.03686523 C-75.43491577 45.21424194 -75.43491577 45.21424194 -74.5 44.375 C-73.1683386 43.20010151 -71.83629875 42.02563183 -70.50390625 40.8515625 C-69.83504395 40.25891602 -69.16618164 39.66626953 -68.47705078 39.05566406 C-65.49053898 36.42245904 -62.46562416 33.83512001 -59.4375 31.25 C-58.28373887 30.26315562 -57.13009314 29.2761763 -55.9765625 28.2890625 C-55.40583008 27.80083008 -54.83509766 27.31259766 -54.24707031 26.80957031 C-52.46164376 25.27963241 -50.67963855 23.74579199 -48.8984375 22.2109375 C-45.97967109 19.69618001 -43.05064143 17.19380349 -40.11669922 14.69677734 C-38.60077985 13.39879141 -37.09868975 12.08470327 -35.59765625 10.76953125 C-25.60744153 2.21263284 -13.33791853 -6.43078215 0 0 Z " fill="#000000" transform="translate(415.5,329.6875)"/>
<path d="M0 0 C0 7.92 0 15.84 0 24 C1.73765625 23.95359375 3.4753125 23.9071875 5.265625 23.859375 C7.59373265 23.82182488 9.9218591 23.78542823 12.25 23.75 C13.38953125 23.71648437 14.5290625 23.68296875 15.703125 23.6484375 C30.31052541 23.48244431 41.13453333 28.46357688 51.75 38.3125 C62.00394096 49.14685272 64.46836375 61.19234722 64.43359375 75.6796875 C64.4388356 76.96884064 64.44407745 78.25799377 64.44947815 79.58621216 C64.45835374 82.30090207 64.45605108 85.01529696 64.44604492 87.72998047 C64.43457214 91.17486097 64.45476762 94.61871368 64.48396206 98.0634594 C64.506934 101.39391899 64.49984778 104.7241511 64.49609375 108.0546875 C64.50732773 109.27380829 64.51856171 110.49292908 64.53013611 111.74899292 C64.41323716 126.30457523 59.52320959 137.14877528 49.6875 147.75 C37.54900969 159.23821404 24.29196633 160.45106984 8.375 160.1875 C6.78256478 160.17242196 5.1901157 160.15873909 3.59765625 160.14648438 C-0.26885824 160.11630866 -4.13341338 160.05755118 -8 160 C-8 149.44 -8 138.88 -8 128 C3.4375 127.6875 3.4375 127.6875 6.98608398 127.61206055 C14.36023992 127.35558445 21.80411755 126.95004534 27.4375 121.75 C30.92064232 115.61966951 31.30853086 109.77516966 31.30078125 102.8828125 C31.30720894 101.59792435 31.30720894 101.59792435 31.31376648 100.28707886 C31.31948262 98.4835498 31.32003019 96.6799977 31.31567383 94.87646484 C31.31251718 92.13989294 31.33599529 89.40440711 31.36132812 86.66796875 C31.36360197 84.90625135 31.36430422 83.14453107 31.36328125 81.3828125 C31.372491 80.57627228 31.38170074 79.76973206 31.39118958 78.93875122 C31.33772869 72.26508627 30.40177669 65.60192475 25.75 60.5625 C19.98340573 57.28602598 14.04366614 56.66058548 7.5625 56.375 C5.066875 56.25125 2.57125 56.1275 0 56 C0 63.92 0 71.84 0 80 C-7.875 73.25 -7.875 73.25 -10.82397461 70.28955078 C-11.48413071 69.62931915 -12.1442868 68.96908752 -12.82444763 68.28884888 C-13.51015335 67.59798187 -14.19585907 66.90711487 -14.90234375 66.1953125 C-15.98619102 65.1093428 -15.98619102 65.1093428 -17.0919342 64.00143433 C-19.37616922 61.71164735 -21.65688312 59.41839007 -23.9375 57.125 C-25.49521039 55.56226839 -27.05315087 53.9997661 -28.61132812 52.4375 C-32.41021602 48.6276469 -36.20622713 44.81494621 -40 41 C-38.58234925 37.7797803 -36.87664194 35.62827427 -34.39233398 33.14941406 C-33.65494492 32.40894836 -32.91755585 31.66848267 -32.15782166 30.90557861 C-31.36195145 30.11689392 -30.56608124 29.32820923 -29.74609375 28.515625 C-28.93004166 27.70003113 -28.11398956 26.88443726 -27.27320862 26.04412842 C-25.54982011 24.3237585 -23.8240043 22.6058172 -22.09594727 20.89013672 C-19.43902715 18.25151663 -16.79023958 15.60493838 -14.14257812 12.95703125 C-12.46922215 11.28858882 -10.79540975 9.62060402 -9.12109375 7.953125 C-7.92425209 6.75795258 -7.92425209 6.75795258 -6.70323181 5.53863525 C-5.9689949 4.8107782 -5.234758 4.08292114 -4.47827148 3.33300781 C-3.82922348 2.68777161 -3.18017548 2.0425354 -2.51145935 1.37774658 C-1 0 -1 0 0 0 Z " fill="#000000" transform="translate(432,48)"/>
<path d="M0 0 C7.875 6.75 7.875 6.75 10.82397461 9.71044922 C11.48413071 10.37068085 12.1442868 11.03091248 12.82444763 11.71115112 C13.51015335 12.40201813 14.19585907 13.09288513 14.90234375 13.8046875 C15.98619102 14.8906572 15.98619102 14.8906572 17.0919342 15.99856567 C19.37616922 18.28835265 21.65688312 20.58160993 23.9375 22.875 C25.49521039 24.43773161 27.05315087 26.0002339 28.61132812 27.5625 C32.41021602 31.3723531 36.20622713 35.18505379 40 39 C38.58234925 42.2202197 36.87664194 44.37172573 34.39233398 46.85058594 C33.65494492 47.59105164 32.91755585 48.33151733 32.15782166 49.09442139 C31.36195145 49.88310608 30.56608124 50.67179077 29.74609375 51.484375 C28.93004166 52.29996887 28.11398956 53.11556274 27.27320862 53.95587158 C25.54982011 55.6762415 23.8240043 57.3941828 22.09594727 59.10986328 C19.43902715 61.74848337 16.79023958 64.39506162 14.14257812 67.04296875 C12.46922215 68.71141118 10.79540975 70.37939598 9.12109375 72.046875 C8.32319931 72.84365662 7.52530487 73.64043823 6.70323181 74.46136475 C5.60187645 75.55315033 5.60187645 75.55315033 4.47827148 76.66699219 C3.82922348 77.31222839 3.18017548 77.9574646 2.51145935 78.62225342 C1 80 1 80 0 80 C0 72.08 0 64.16 0 56 C-14.72817461 55.95455331 -14.72817461 55.95455331 -27.4375 62.25 C-30.92064232 68.38033049 -31.30853086 74.22483034 -31.30078125 81.1171875 C-31.30720894 82.40207565 -31.30720894 82.40207565 -31.31376648 83.71292114 C-31.31948262 85.5164502 -31.32003019 87.3200023 -31.31567383 89.12353516 C-31.31251718 91.86010706 -31.33599529 94.59559289 -31.36132812 97.33203125 C-31.36360197 99.09374865 -31.36430422 100.85546893 -31.36328125 102.6171875 C-31.372491 103.42372772 -31.38170074 104.23026794 -31.39118958 105.06124878 C-31.33772869 111.73491373 -30.40177669 118.39807525 -25.75 123.4375 C-18.70467288 127.44052677 -11.48425389 127.39852617 -3.5625 127.625 C0.253125 127.74875 4.06875 127.8725 8 128 C8 138.56 8 149.12 8 160 C3.37656237 160.0926747 -1.2435551 160.17204058 -5.8671875 160.21972656 C-7.43435686 160.23963732 -9.00145397 160.26677635 -10.56835938 160.30175781 C-27.17645871 160.66280345 -39.285327 157.25209814 -51.75 145.6875 C-62.00394096 134.85314728 -64.46836375 122.80765278 -64.43359375 108.3203125 C-64.4388356 107.03115936 -64.44407745 105.74200623 -64.44947815 104.41378784 C-64.45835374 101.69909793 -64.45605108 98.98470304 -64.44604492 96.27001953 C-64.43457214 92.82513903 -64.45476762 89.38128632 -64.48396206 85.9365406 C-64.506934 82.60608101 -64.49984778 79.2758489 -64.49609375 75.9453125 C-64.50732773 74.72619171 -64.51856171 73.50707092 -64.53013611 72.25100708 C-64.41323716 57.69542477 -59.52320959 46.85122472 -49.6875 36.25 C-38.81287863 25.95794763 -26.9214245 23.49627338 -12.375 23.8125 C-11.18003906 23.82603516 -9.98507813 23.83957031 -8.75390625 23.85351562 C-5.83573909 23.88853363 -2.91780734 23.94232738 0 24 C0 16.08 0 8.16 0 0 Z " fill="#000000" transform="translate(80,48)"/>
<path d="M0 0 C1.36676407 1.87219334 1.36676407 1.87219334 2.60699463 4.37220764 C3.32203156 5.78784752 3.32203156 5.78784752 4.05151367 7.23208618 C4.81540405 8.79761734 4.81540405 8.79761734 5.59472656 10.39477539 C6.14151062 11.48732132 6.68829468 12.57986725 7.25164795 13.70552063 C8.74918982 16.70465007 10.23402432 19.7094612 11.71360493 22.71745229 C13.26242556 25.85880681 14.82707324 28.99225645 16.39007568 32.12657166 C19.3478037 38.06379785 22.29118279 44.00801826 25.22950149 49.95486969 C28.57520036 56.72446722 31.93677482 63.4861355 35.29972124 70.24717724 C42.21754524 84.15602374 49.11531624 98.07471683 56 112 C53.86165773 114.21300526 52.14409715 115.58342472 49.31054688 116.80932617 C48.57968872 117.12943161 47.84883057 117.44953705 47.0958252 117.77934265 C46.31139038 118.11383926 45.52695557 118.44833588 44.71875 118.79296875 C43.5039093 119.31930656 43.5039093 119.31930656 42.26452637 119.85627747 C40.55463596 120.5950726 38.84320863 121.33031937 37.13037109 122.06225586 C34.50587737 123.18498572 31.88748328 124.32109706 29.26953125 125.45898438 C27.60711747 126.17528419 25.94436807 126.8908057 24.28125 127.60546875 C23.49681519 127.94603806 22.71238037 128.28660736 21.9041748 128.63749695 C16.34595681 131 16.34595681 131 13 131 C5.69122114 116.45247316 -1.61071232 101.90153452 -8.90447998 87.34647655 C-12.29113838 80.58863928 -15.68004073 73.8319449 -19.07421875 67.07788086 C-22.03201873 61.19214995 -24.98561691 55.30433328 -27.93415451 49.41395646 C-29.49603003 46.29412188 -31.06001241 43.17538405 -32.62902832 40.05913353 C-34.37900169 36.58328496 -36.11959202 33.10278753 -37.859375 29.62182617 C-38.64483704 28.06708084 -38.64483704 28.06708084 -39.44616699 26.48092651 C-39.91735962 25.53441727 -40.38855225 24.58790802 -40.87402344 23.61271667 C-41.28698669 22.78955554 -41.69994995 21.96639441 -42.12542725 21.11828899 C-43 19 -43 19 -43 16 C-37.52548646 13.54589462 -32.0445646 11.10695863 -26.55712891 8.68188477 C-24.691027 7.85465208 -22.82674936 7.02329141 -20.96435547 6.18774414 C-18.28821292 4.98797112 -15.60587736 3.80315927 -12.921875 2.62109375 C-12.08944275 2.24407822 -11.2570105 1.86706268 -10.39935303 1.47862244 C-9.61884583 1.13819412 -8.83833862 0.79776581 -8.03417969 0.44702148 C-7.35023132 0.1427977 -6.66628296 -0.16142609 -5.96160889 -0.47486877 C-3.49614799 -1.13488337 -2.3718854 -0.93706994 0 0 Z " fill="#000000" transform="translate(70,355)"/>
<path d="M0 0 C10.56 0 21.12 0 32 0 C32 10.56 32 21.12 32 32 C42.56 32 53.12 32 64 32 C64 42.56 64 53.12 64 64 C53.44 64 42.88 64 32 64 C32 74.56 32 85.12 32 96 C21.44 96 10.88 96 0 96 C0 85.44 0 74.88 0 64 C-10.56 64 -21.12 64 -32 64 C-32 53.44 -32 42.88 -32 32 C-21.44 32 -10.88 32 0 32 C0 21.44 0 10.88 0 0 Z " fill="#000000" transform="translate(240,104)"/>
<path d="M0 0 C1.3096875 -0.00257813 2.619375 -0.00515625 3.96875 -0.0078125 C6.72235924 0.09575245 8.90352847 0.29041986 11.5 1.125 C10.24507047 4.88978859 8.66902481 5.81880667 5.5625 8.25 C1.7680907 11.27573542 -1.91936462 14.34897726 -5.5 17.625 C-11.89431663 23.44730109 -18.54549596 28.98190166 -25.5 34.125 C-26.79454565 32.21027667 -28.08552944 30.29314482 -29.375 28.375 C-30.09429687 27.30765625 -30.81359375 26.2403125 -31.5546875 25.140625 C-33.04507257 22.83022886 -34.35199401 20.61436036 -35.5 18.125 C-24.7485045 8.51873534 -15.04917092 -0.02962435 0 0 Z " fill="#000000" transform="translate(358.5,327.875)"/>
<path d="M0 0 C-6.98609465 8.94281263 -6.98609465 8.94281263 -12 11 C-16.48880326 10.91258917 -20.65624054 10.09918303 -25 9 C-23.15387427 4.37974951 -20.37025523 3.05565294 -16.01953125 0.97265625 C-10.73894785 -0.72833375 -5.47902185 -0.38645138 0 0 Z " fill="#000000" transform="translate(321,328)"/>
</svg>
