<?xml version="1.0" encoding="UTF-8"?>
<svg version="1.1" xmlns="http://www.w3.org/2000/svg" width="512" height="512">
<path d="M0 0 C0.73959961 0.19303711 1.47919922 0.38607422 2.24121094 0.58496094 C21.05502568 5.62570585 39.35301789 15.16377117 54 28 C54.5053125 28.43666992 55.010625 28.87333984 55.53125 29.32324219 C77.84249332 48.69219029 94.35412173 73.26517099 102 102 C102.29197266 103.05936768 102.29197266 103.05936768 102.58984375 104.14013672 C108.26996168 125.6401256 108.86159823 152.44519855 103 174 C102.72663818 175.00619385 102.72663818 175.00619385 102.44775391 176.03271484 C91.9419458 213.85186865 68.15472149 246.20336457 34 266 C23.18393184 271.84452067 11.89579834 276.83471838 0 280 C-0.70624512 280.19464844 -1.41249023 280.38929688 -2.14013672 280.58984375 C-25.71065576 286.8169785 -52.0083632 285.77248095 -75.55078125 280.15234375 C-81.13864367 279.90554122 -83.78937183 282.93672353 -87.82421875 286.48046875 C-88.76910156 287.37378906 -89.71398437 288.26710938 -90.6875 289.1875 C-94.52059079 292.77206121 -98.40533956 296.2112351 -102.5 299.5 C-107.22739082 303.29842756 -111.69757193 307.31143057 -116.1171875 311.45898438 C-120.23822581 315.30787865 -122.23950229 316.11206381 -127.9296875 316.42578125 C-130.98160927 315.79812187 -132.06624771 314.40435352 -134 312 C-135.6979594 301.65126123 -133.26982335 290.02825109 -132 279.6875 C-131.28465148 273.79607682 -130.60151663 267.90424306 -130 262 C-129.90074219 261.03271973 -129.80148438 260.06543945 -129.69921875 259.06884766 C-129.47411145 255.1801191 -129.69936869 253.38112822 -132.14453125 250.28125 C-133.55798828 249.15203125 -133.55798828 249.15203125 -135 248 C-162.49127214 221.55860671 -181.30999675 186.88683029 -182.28125 148.12890625 C-182.55382233 133.91241235 -182.63980495 119.84006478 -179 106 C-178.83371094 105.32727051 -178.66742188 104.65454102 -178.49609375 103.96142578 C-169.08125227 66.22360287 -144.45435006 34.49283312 -111.3203125 14.44335938 C-78.621308 -4.56539926 -36.51389324 -10.0613962 0 0 Z M-115 59 C-115.61359375 59.52851562 -116.2271875 60.05703125 -116.859375 60.6015625 C-131.15788139 73.87874701 -140.82195871 92.42573825 -146 111 C-146.3196875 112.08667969 -146.639375 113.17335938 -146.96875 114.29296875 C-151.23237009 131.44614401 -150.98825785 152.04394609 -146 169 C-145.6596875 170.22074219 -145.319375 171.44148437 -144.96875 172.69921875 C-136.34025326 201.06248675 -116.02510459 224.89880875 -90.03125 238.95947266 C-63.02905619 252.79160607 -32.34409489 255.63996293 -3.32421875 246.546875 C12.4226075 241.17630389 26.5323491 231.86018647 39 221 C39.61359375 220.47148437 40.2271875 219.94296875 40.859375 219.3984375 C55.15788139 206.12125299 64.82195871 187.57426175 70 169 C70.3196875 167.91332031 70.639375 166.82664063 70.96875 165.70703125 C75.23237009 148.55385599 74.98825785 127.95605391 70 111 C69.6596875 109.77925781 69.319375 108.55851562 68.96875 107.30078125 C60.28115965 78.74326296 39.90757003 55.22195595 13.84960938 40.984375 C-29.53219373 17.89627704 -78.91039331 27.56345581 -115 59 Z " fill="#000000" transform="translate(382,28)"/>
<path d="M0 0 C3.35505307 1.11835102 3.6067969 1.50748539 5.35546875 4.375 C5.80438477 5.09961426 6.25330078 5.82422852 6.71582031 6.57080078 C7.20147461 7.37243652 7.68712891 8.17407227 8.1875 9 C9.26851202 10.74802656 10.3505979 12.49538934 11.43359375 14.2421875 C12.01093262 15.17772461 12.58827148 16.11326172 13.18310547 17.07714844 C16.32127428 22.12554362 19.53845961 27.12308659 22.75 32.125 C24.10820035 34.24471002 25.46627161 36.36450276 26.82421875 38.484375 C27.50790527 39.55107422 28.1915918 40.61777344 28.89599609 41.71679688 C32.45355839 47.26821225 36.00800406 52.82162086 39.5625 58.375 C40.20477539 59.37805176 40.84705078 60.38110352 41.50878906 61.41455078 C42.73443702 63.3291857 43.95579147 65.24657744 45.17236328 67.16699219 C46.44624942 69.14163483 47.75487183 71.0941143 49.08935547 73.02832031 C49.7495166 74.00124023 50.40967773 74.97416016 51.08984375 75.9765625 C51.69562256 76.84619629 52.30140137 77.71583008 52.92553711 78.61181641 C54 81 54 81 53.28735352 83.20068359 C52 85 52 85 50.3125 86.8125 C48.73779662 89.43700564 48.91141217 91.01295011 49.41333008 93.97729492 C50.57366016 97.97785037 52.91340185 101.2984044 55.1875 104.75 C55.71706299 105.56984375 56.24662598 106.3896875 56.79223633 107.234375 C65.3986726 120.38905027 74.83994828 133.00722442 85 145 C85.82886719 146.01320313 86.65773438 147.02640625 87.51171875 148.0703125 C98.82730197 161.76461361 111.40443404 175.12793347 125.46875 186.0234375 C127.84190157 187.8765466 130.10268768 189.82481349 132.36303711 191.81274414 C143.78790573 201.78846676 156.46722591 210.33973148 169.3125 218.375 C169.89177246 218.75027832 170.47104492 219.12555664 171.06787109 219.51220703 C175.19365606 222.00986873 178.23113124 222.73041497 183 222 C185.59194865 220.53690027 187.67787321 218.89561371 190 217 C190.64211426 217.41137207 191.28422852 217.82274414 191.94580078 218.24658203 C203.28812677 225.51203574 214.63271718 232.77363339 226 240 C234.11010549 245.15738633 242.21444076 250.32372435 250.3125 255.5 C251.34439453 256.15871094 252.37628906 256.81742187 253.43945312 257.49609375 C259.33618274 261.26784102 265.19344999 265.09074771 271 269 C269.73464435 272.48371311 268.2926319 275.21908778 266.0234375 278.14453125 C265.43433594 278.90443359 264.84523438 279.66433594 264.23828125 280.44726562 C263.31595703 281.61805664 263.31595703 281.61805664 262.375 282.8125 C261.48748047 283.96588867 261.48748047 283.96588867 260.58203125 285.14257812 C250.76347192 297.70736517 238.51347343 308.96275061 222 311 C175.1879345 314.85168913 127.57316094 273.17712616 93 245 C92.1440625 244.31808594 91.288125 243.63617188 90.40625 242.93359375 C84.0660648 237.84140478 78.07000183 232.46239156 72.1328125 226.9140625 C69.3967687 224.3578682 66.61356581 221.85995807 63.8125 219.375 C56.73557093 213.02184777 50.02190251 206.35046599 43.83984375 199.12109375 C41.63099746 196.57458942 39.34679446 194.1039984 37.0625 191.625 C32.47255767 186.58019852 28.17317789 181.3924716 24 176 C23.53223145 175.39945801 23.06446289 174.79891602 22.58251953 174.18017578 C2.12328611 147.88467003 -16.02727353 120.21104134 -31.625 90.75 C-32.12185303 89.8223584 -32.61870605 88.8947168 -33.13061523 87.93896484 C-41.17736024 72.4870943 -42.67387459 57.57736261 -38.1015625 40.6796875 C-32.76407875 24.97007221 -22.12640928 15.69619058 -8.99853516 6.42578125 C-7.65721081 5.46886283 -6.33376383 4.48641889 -5.02880859 3.48046875 C-3.40732897 2.24489362 -1.70842265 1.1122653 0 0 Z " fill="#000000" transform="translate(64,177)"/>
<path d="M0 0 C0.04898438 1.09699219 0.09796875 2.19398437 0.1484375 3.32421875 C0.22350591 4.77866925 0.29905197 6.23309516 0.375 7.6875 C0.4059375 8.40873047 0.436875 9.12996094 0.46875 9.87304688 C0.6912939 13.93447311 1.05279622 17.33673533 3 21 C5.79870027 22.39935013 7.90498792 22.25265405 11 22 C13.55949546 20.14657225 13.97918798 19.06243607 15 16 C15.22797562 13.26710707 15.41668187 10.54957796 15.5625 7.8125 C15.62727539 6.68811523 15.62727539 6.68811523 15.69335938 5.54101562 C15.79922685 3.69421625 15.9000976 1.84713166 16 0 C34.51305261 0.7556348 55.12273394 7.92755895 68.90234375 20.7734375 C69.26457031 21.17820312 69.62679687 21.58296875 70 22 C68.49339428 25.64713844 66.342843 27.68696531 63.4375 30.3125 C59.56258378 33.9946065 59.56258378 33.9946065 57.8125 38.875 C57.74656487 42.16570758 57.74656487 42.16570758 60 45 C63.38983087 46.05461405 65.17967155 46.41016423 68.3984375 44.80078125 C71.19789802 42.86301654 73.4422569 40.75349662 75.8125 38.3125 C76.99779297 37.10013672 76.99779297 37.10013672 78.20703125 35.86328125 C79.09455078 34.94095703 79.09455078 34.94095703 80 34 C89.43604231 37.86487136 94.08841772 51.22326562 98 60 C101.55853453 69.08420927 104.16946737 78.1991372 104 88 C102.90300781 88.04898438 101.80601562 88.09796875 100.67578125 88.1484375 C99.22133075 88.22350591 97.76690484 88.29905197 96.3125 88.375 C95.59126953 88.4059375 94.87003906 88.436875 94.12695312 88.46875 C90.06552689 88.6912939 86.66326467 89.05279622 83 91 C81.60064987 93.79870027 81.74734595 95.90498792 82 99 C83.85342775 101.55949546 84.93756393 101.97918798 88 103 C90.73289293 103.22797562 93.45042204 103.41668187 96.1875 103.5625 C97.31188477 103.62727539 97.31188477 103.62727539 98.45898438 103.69335938 C100.30578375 103.79922685 102.15286834 103.9000976 104 104 C103.2443652 122.51305261 96.07244105 143.12273394 83.2265625 156.90234375 C82.82179688 157.26457031 82.41703125 157.62679687 82 158 C78.35286156 156.49339428 76.31303469 154.342843 73.6875 151.4375 C70.01134127 147.58125884 70.01134127 147.58125884 65.1875 145.6875 C61.97413301 145.7727749 61.97413301 145.7727749 59.5 147.5 C57.70959006 149.98373899 57.70959006 149.98373899 58.05859375 153.28515625 C59.18602366 157.73406017 61.26322941 159.9595067 64.5625 162.9375 C65.08263672 163.43056641 65.60277344 163.92363281 66.13867188 164.43164062 C67.41247833 165.63532929 68.70447049 166.81972352 70 168 C66.13412332 177.43849678 52.77661582 182.08412923 44 186 C35.04749668 189.54576392 25.69401989 192.20810061 16 192 C15.95101562 190.90300781 15.90203125 189.80601562 15.8515625 188.67578125 C15.77649409 187.22133075 15.70094803 185.76690484 15.625 184.3125 C15.5940625 183.59126953 15.563125 182.87003906 15.53125 182.12695312 C15.3087061 178.06552689 14.94720378 174.66326467 13 171 C10.20129973 169.60064987 8.09501208 169.74734595 5 170 C2.44050454 171.85342775 2.02081202 172.93756393 1 176 C0.77202438 178.73289293 0.58331813 181.45042204 0.4375 184.1875 C0.39431641 184.93708984 0.35113281 185.68667969 0.30664062 186.45898438 C0.20077315 188.30578375 0.0999024 190.15286834 0 192 C-18.51305261 191.2443652 -39.12273394 184.07244105 -52.90234375 171.2265625 C-53.26457031 170.82179687 -53.62679687 170.41703125 -54 170 C-52.49339428 166.35286156 -50.342843 164.31303469 -47.4375 161.6875 C-43.58125884 158.01134127 -43.58125884 158.01134127 -41.6875 153.1875 C-41.7727749 149.97413301 -41.7727749 149.97413301 -43.5 147.5 C-45.98373899 145.70959006 -45.98373899 145.70959006 -49.28515625 146.05859375 C-53.73406017 147.18602366 -55.9595067 149.26322941 -58.9375 152.5625 C-59.43056641 153.08263672 -59.92363281 153.60277344 -60.43164062 154.13867188 C-61.63532929 155.41247833 -62.81972352 156.70447049 -64 158 C-73.43604231 154.13512864 -78.08841772 140.77673438 -82 132 C-85.55853453 122.91579073 -88.16946737 113.8008628 -88 104 C-86.90300781 103.95101562 -85.80601562 103.90203125 -84.67578125 103.8515625 C-83.22133075 103.77649409 -81.76690484 103.70094803 -80.3125 103.625 C-79.59126953 103.5940625 -78.87003906 103.563125 -78.12695312 103.53125 C-74.06552689 103.3087061 -70.66326467 102.94720378 -67 101 C-65.60064987 98.20129973 -65.74734595 96.09501208 -66 93 C-67.85342775 90.44050454 -68.93756393 90.02081202 -72 89 C-74.73289293 88.77202438 -77.45042204 88.58331813 -80.1875 88.4375 C-81.31188477 88.37272461 -81.31188477 88.37272461 -82.45898438 88.30664062 C-84.30578375 88.20077315 -86.15286834 88.0999024 -88 88 C-87.2443652 69.48694739 -80.07244105 48.87726606 -67.2265625 35.09765625 C-66.61941406 34.55431641 -66.61941406 34.55431641 -66 34 C-61.39139239 35.90808867 -58.70339352 39.37169444 -55.4140625 43.00390625 C-52.54706916 45.37451077 -50.67278319 45.75380797 -47 46 C-44.61441973 45.6824493 -44.61441973 45.6824493 -43 44 C-41.55589179 40.82709813 -41.55589179 40.82709813 -42 37 C-43.96708513 33.95419077 -46.40465687 31.51637731 -49 29 C-49.78310547 28.19949219 -49.78310547 28.19949219 -50.58203125 27.3828125 C-51.70413538 26.23807227 -52.84921936 25.1159085 -54 24 C-50.13512864 14.56395769 -36.77673438 9.91158228 -28 6 C-18.91579073 2.44146547 -9.8008628 -0.16946737 0 0 Z M-38 67 C-39.42041821 69.84083641 -39.31452272 71.85477278 -39 75 C-36.76793569 77.84780619 -35.45007001 78.84997666 -32 80 C-29.26134713 80.07051114 -26.54972412 80.09357765 -23.8125 80.0625 C-23.06291016 80.05798828 -22.31332031 80.05347656 -21.54101562 80.04882812 C-19.69397617 80.03706354 -17.84697787 80.01912865 -16 80 C-16 82.64 -16 85.28 -16 88 C-17.08539063 87.96519531 -18.17078125 87.93039063 -19.2890625 87.89453125 C-20.73435942 87.86637612 -22.17967321 87.83907781 -23.625 87.8125 C-24.69427734 87.77479492 -24.69427734 87.77479492 -25.78515625 87.73632812 C-30.56951291 87.67048835 -33.93998998 88.18969276 -38 91 C-40.76276327 96.4759914 -40.33046772 101.93987568 -40.3125 107.9375 C-40.32861328 109.00935547 -40.34472656 110.08121094 -40.36132812 111.18554688 C-40.42486066 119.06506343 -40.42486066 119.06506343 -37 126 C-31.50155706 128.73974548 -26.07482496 128.33051176 -20.0625 128.3125 C-18.99064453 128.32861328 -17.91878906 128.34472656 -16.81445312 128.36132812 C-11.18099202 128.36481634 -6.79395612 128.33386796 -2 125 C-0.57958179 122.15916359 -0.68547728 120.14522722 -1 117 C-3.23206431 114.15219381 -4.54992999 113.15002334 -8 112 C-10.73865287 111.92948886 -13.45027588 111.90642235 -16.1875 111.9375 C-16.93708984 111.94201172 -17.68667969 111.94652344 -18.45898438 111.95117188 C-20.30602383 111.96293646 -22.15302213 111.98087135 -24 112 C-24 109.36 -24 106.72 -24 104 C-22.37191406 104.05220703 -22.37191406 104.05220703 -20.7109375 104.10546875 C-19.26564058 104.13362388 -17.82032679 104.16092219 -16.375 104.1875 C-15.66214844 104.21263672 -14.94929688 104.23777344 -14.21484375 104.26367188 C-9.43048709 104.32951165 -6.06001002 103.81030724 -2 101 C0.76276327 95.5240086 0.33046772 90.06012432 0.3125 84.0625 C0.32861328 82.99064453 0.34472656 81.91878906 0.36132812 80.81445312 C0.42486066 72.93493657 0.42486066 72.93493657 -3 66 C-8.49844294 63.26025452 -13.92517504 63.66948824 -19.9375 63.6875 C-21.00935547 63.67138672 -22.08121094 63.65527344 -23.18554688 63.63867188 C-28.81900798 63.63518366 -33.20604388 63.66613204 -38 67 Z M18.6875 66.8125 C14.84569979 71.79261139 15.77832274 77.81161883 15.75 83.8125 C15.729375 84.89337891 15.70875 85.97425781 15.6875 87.08789062 C15.56825163 95.02040121 15.56825163 95.02040121 19 102 C23.11508125 104.59509629 27.59726507 104.23455863 32.3125 104.125 C33.05306641 104.11597656 33.79363281 104.10695312 34.55664062 104.09765625 C36.37123467 104.07424213 38.18566071 104.03837615 40 104 C39.96519531 105.08539063 39.93039062 106.17078125 39.89453125 107.2890625 C39.86637612 108.73435942 39.83907781 110.17967321 39.8125 111.625 C39.78736328 112.33785156 39.76222656 113.05070312 39.73632812 113.78515625 C39.67008688 118.59868692 40.34556326 121.82231506 43 126 C45.84083641 127.42041821 47.85477278 127.31452272 51 127 C53.84780619 124.76793569 54.84997666 123.45007001 56 120 C56.10147433 118.45185493 56.14833858 116.89980303 56.16113281 115.34838867 C56.17074036 114.40698532 56.1803479 113.46558197 56.19024658 112.49565125 C56.19449646 111.48001602 56.19874634 110.4643808 56.203125 109.41796875 C56.21167511 107.84756584 56.21167511 107.84756584 56.22039795 106.24543762 C56.22984766 104.02878836 56.23638182 101.81212504 56.24023438 99.59545898 C56.24993216 96.2111751 56.28095313 92.82750051 56.3125 89.44335938 C56.31903098 87.2890661 56.32428108 85.13476849 56.328125 82.98046875 C56.3404718 81.97090622 56.3528186 80.96134369 56.36553955 79.92118835 C56.34857365 74.5457587 56.11154548 70.60813636 53 66 C50.15916359 64.57958179 48.14522722 64.68547728 45 65 C42.15219381 67.23206431 41.15002334 68.54992999 40 72 C39.92948886 74.73865287 39.90642235 77.45027588 39.9375 80.1875 C39.94201172 80.93708984 39.94652344 81.68667969 39.95117188 82.45898438 C39.96293646 84.30602383 39.98087135 86.15302213 40 88 C37.36 88 34.72 88 32 88 C32.03480469 86.91460937 32.06960938 85.82921875 32.10546875 84.7109375 C32.13362388 83.26564058 32.16092219 81.82032679 32.1875 80.375 C32.21263672 79.66214844 32.23777344 78.94929688 32.26367188 78.21484375 C32.32991312 73.40131308 31.65443674 70.17768494 29 66 C25.20468521 64.10234261 22.02678035 64.19522621 18.6875 66.8125 Z " fill="#000000" transform="translate(336,72)"/>
<path d="M0 0 C7.51708423 5.39269086 12.18511945 14.48743894 16.9375 22.25 C18.24253889 24.36256675 19.54855311 26.47453126 20.85546875 28.5859375 C21.84619385 30.18840332 21.84619385 30.18840332 22.85693359 31.82324219 C26.69726833 37.98747656 30.63060037 44.09315643 34.57055664 50.1940918 C35.12219482 51.05429932 35.67383301 51.91450684 36.2421875 52.80078125 C36.72800293 53.55399658 37.21381836 54.30721191 37.71435547 55.08325195 C39.61385634 58.3224723 40.07865052 61.12307565 40.1875 64.8125 C40.22488281 65.63234375 40.26226562 66.4521875 40.30078125 67.296875 C39.06692821 75.3112599 32.77493127 80.59094396 27.25 86 C26.47398437 86.77923828 25.69796875 87.55847656 24.8984375 88.36132812 C19.14230253 94.0625 19.14230253 94.0625 16.875 94.0625 C15.07547993 91.45039388 13.40001854 88.83043822 11.75 86.125 C10.66242688 84.37179464 9.57383298 82.61922221 8.484375 80.8671875 C7.90107422 79.92584961 7.31777344 78.98451172 6.71679688 78.01464844 C3.52396723 72.89697928 0.25912295 67.82560587 -3 62.75 C-7.00290452 56.50677103 -11.00273482 50.26178908 -14.9765625 44 C-15.58765869 43.03731201 -16.19875488 42.07462402 -16.82836914 41.08276367 C-18.00863438 39.2218291 -19.18755062 37.36003813 -20.36499023 35.49731445 C-24.07446477 29.64707023 -27.90695198 23.92074305 -31.96484375 18.3046875 C-33.125 16.0625 -33.125 16.0625 -32.92944336 14.10864258 C-31.90145292 11.49389663 -30.71390515 10.67155707 -28.4140625 9.08203125 C-27.66382812 8.55802734 -26.91359375 8.03402344 -26.140625 7.49414062 C-25.35171875 6.95982422 -24.5628125 6.42550781 -23.75 5.875 C-22.96882813 5.32908203 -22.18765625 4.78316406 -21.3828125 4.22070312 C-14.34996965 -0.63846141 -8.45505104 -2.53651531 0 0 Z " fill="#000000" transform="translate(111.125,153.9375)"/>
<path d="M0 0 C0.79921875 -0.02835937 1.5984375 -0.05671875 2.421875 -0.0859375 C9.26339201 1.02911638 15.19388878 5.48067416 20.875 9.25 C22.35743877 10.22232169 23.84054735 11.19362271 25.32421875 12.1640625 C26.50636963 12.9379834 26.50636963 12.9379834 27.71240234 13.72753906 C33.24381804 17.31864866 38.82969477 20.8258689 44.41064453 24.33935547 C48.89247266 27.17655185 53.33729656 30.06238306 57.72265625 33.046875 C58.5206665 33.58924805 59.31867676 34.13162109 60.14086914 34.69042969 C63.33033469 37.23786716 64.96045232 39.50635695 66.25 43.375 C66.48828125 45.609375 66.48828125 45.609375 66.5625 48.125 C66.61857422 49.35476563 66.61857422 49.35476563 66.67578125 50.609375 C65.68546774 57.04187009 60.93877607 62.3260553 57 67.3125 C56.54109375 67.90095703 56.0821875 68.48941406 55.609375 69.09570312 C54.49360502 70.52528342 53.37238102 71.95060423 52.25 73.375 C48.14043339 72.73573408 44.99192207 70.51622526 41.5625 68.3125 C40.87534912 67.87695801 40.18819824 67.44141602 39.48022461 66.99267578 C37.0661824 65.45959234 34.65798125 63.9175845 32.25 62.375 C30.33862845 61.15481197 28.42716562 59.9347669 26.515625 58.71484375 C21.20053969 55.3194367 15.89045542 51.91627881 10.58154297 48.51123047 C5.01477208 44.94174158 -0.55517521 41.37722136 -6.125 37.8125 C-7.12781006 37.17038574 -8.13062012 36.52827148 -9.16381836 35.86669922 C-15.68555823 31.69178311 -22.21496984 27.52908114 -28.75 23.375 C-24.56563505 18.3908711 -20.22338067 13.66582517 -15.625 9.0625 C-15.01785156 8.44310547 -14.41070312 7.82371094 -13.78515625 7.18554688 C-12.89763672 6.29512695 -12.89763672 6.29512695 -11.9921875 5.38671875 C-11.4647998 4.85522217 -10.93741211 4.32372559 -10.39404297 3.77612305 C-7.12732498 0.99208762 -4.2548792 0.06775285 0 0 Z " fill="#000000" transform="translate(292.75,360.625)"/>
<path d="M0 0 C2.35123328 1.73904103 4.31426526 3.74661204 6.3125 5.875 C6.83650391 6.40480469 7.36050781 6.93460937 7.90039062 7.48046875 C12.81375959 12.55111585 12.81375959 12.55111585 14 16 C13.82332188 19.3568842 13.62149255 21.96417908 11.875 24.875 C8.86438501 26.68136899 6.49557632 26.94075294 3 27 C0.43043162 25.80086809 -0.9281515 24.85400313 -3 23 C-3.83402344 22.2575 -4.66804688 21.515 -5.52734375 20.75 C-14.644064 12.16955742 -14.644064 12.16955742 -15 6 C-13.83966553 2.38248667 -12.91972312 0.61314875 -9.75 -1.5 C-5.9124933 -2.19772849 -3.64951905 -1.37096308 0 0 Z " fill="#000000" transform="translate(384,435)"/>
<path d="M0 0 C2.5 2.125 2.5 2.125 4 5 C4.27181588 9.80208058 2.94175984 12.43760932 -0.0625 16 C-1.35609894 17.35167889 -2.66935835 18.68477119 -4 20 C-4.97066406 21.0209375 -4.97066406 21.0209375 -5.9609375 22.0625 C-9.177265 25.21526371 -11.62656151 27.43874357 -16.25 27.6875 C-20 27 -20 27 -22.4375 25.3125 C-24.22849814 22.66182276 -24.92366259 21.20617138 -25 18 C-23.02196359 13.20192521 -20.25022549 9.81430763 -16.5625 6.25 C-16.08490234 5.76917969 -15.60730469 5.28835938 -15.11523438 4.79296875 C-10.04682897 -0.19895866 -7.10117852 -1.90210139 0 0 Z " fill="#000000" transform="translate(394,355)"/>
<path d="M0 0 C2.5 2.125 2.5 2.125 4 5 C4.27181588 9.80208058 2.94175984 12.43760932 -0.0625 16 C-1.35609894 17.35167889 -2.66935835 18.68477119 -4 20 C-4.97066406 21.0209375 -4.97066406 21.0209375 -5.9609375 22.0625 C-9.177265 25.21526371 -11.62656151 27.43874357 -16.25 27.6875 C-20 27 -20 27 -22.4375 25.3125 C-24.22849814 22.66182276 -24.92366259 21.20617138 -25 18 C-23.02196359 13.20192521 -20.25022549 9.81430763 -16.5625 6.25 C-16.08490234 5.76917969 -15.60730469 5.28835937 -15.11523438 4.79296875 C-10.04682897 -0.19895866 -7.10117852 -1.90210139 0 0 Z " fill="#000000" transform="translate(154,115)"/>
<path d="M0 0 C4.1272066 1.43238347 6.98892344 4.6293699 9.9921875 7.69140625 C10.66121094 8.37332031 11.33023438 9.05523437 12.01953125 9.7578125 C17.53259638 15.69929578 17.53259638 15.69929578 17.9921875 20.69140625 C15.71507907 26.32996047 15.71507907 26.32996047 12.9921875 27.69140625 C8.97482788 28.24552482 6.42894123 28.58562869 2.93359375 26.41015625 C0.82507253 24.60167801 -1.09391801 22.70442675 -3.0078125 20.69140625 C-3.67554688 20.03140625 -4.34328125 19.37140625 -5.03125 18.69140625 C-8.0721321 15.51399475 -9.83164101 13.23846508 -11.1953125 9.00390625 C-10.96489142 4.93313389 -9.89653209 3.49759099 -7.0078125 0.69140625 C-4.53659171 -0.54420414 -2.69623949 -0.44191477 0 0 Z " fill="#000000" transform="translate(61.0078125,114.30859375)"/>
<path d="M0 0 C1.051875 -0.00515625 2.10375 -0.0103125 3.1875 -0.015625 C4.280625 -0.00015625 5.37375 0.0153125 6.5 0.03125 C8.1396875 0.00804687 8.1396875 0.00804687 9.8125 -0.015625 C10.864375 -0.01046875 11.91625 -0.0053125 13 0 C14.43859375 0.00676758 14.43859375 0.00676758 15.90625 0.01367188 C19.21298564 0.673525 20.40908706 1.94238555 22.5 4.53125 C23.03125 6.53125 23.03125 6.53125 23 8.53125 C23.0103125 9.19125 23.020625 9.85125 23.03125 10.53125 C22.2561666 13.44921104 20.80895833 14.6243588 18.5 16.53125 C15.90625 17.04882812 15.90625 17.04882812 13 17.0625 C11.948125 17.06765625 10.89625 17.0728125 9.8125 17.078125 C8.719375 17.06265625 7.62625 17.0471875 6.5 17.03125 C4.8603125 17.05445313 4.8603125 17.05445313 3.1875 17.078125 C2.135625 17.07296875 1.08375 17.0678125 0 17.0625 C-0.9590625 17.05798828 -1.918125 17.05347656 -2.90625 17.04882812 C-6.21298564 16.388975 -7.40908706 15.12011445 -9.5 12.53125 C-10.03125 10.53125 -10.03125 10.53125 -10 8.53125 C-10.01546875 7.54125 -10.01546875 7.54125 -10.03125 6.53125 C-8.65240655 1.34030994 -4.94094259 0.02324368 0 0 Z " fill="#000000" transform="translate(393.5,399.46875)"/>
<path d="M0 0 C0.66 -0.0103125 1.32 -0.020625 2 -0.03125 C4.91796104 0.7438334 6.0931088 2.19104167 8 4.5 C8.51757812 7.09375 8.51757812 7.09375 8.53125 10 C8.53640625 11.051875 8.5415625 12.10375 8.546875 13.1875 C8.53140625 14.280625 8.5159375 15.37375 8.5 16.5 C8.51546875 17.593125 8.5309375 18.68625 8.546875 19.8125 C8.54171875 20.864375 8.5365625 21.91625 8.53125 23 C8.52673828 23.9590625 8.52222656 24.918125 8.51757812 25.90625 C7.857725 29.21298564 6.58886445 30.40908706 4 32.5 C2 33.03125 2 33.03125 0 33 C-0.99 33.01546875 -0.99 33.01546875 -2 33.03125 C-4.91796104 32.2561666 -6.0931088 30.80895833 -8 28.5 C-8.51757812 25.90625 -8.51757812 25.90625 -8.53125 23 C-8.53640625 21.948125 -8.5415625 20.89625 -8.546875 19.8125 C-8.53140625 18.719375 -8.5159375 17.62625 -8.5 16.5 C-8.51546875 15.406875 -8.5309375 14.31375 -8.546875 13.1875 C-8.53914063 11.6096875 -8.53914063 11.6096875 -8.53125 10 C-8.52673828 9.0409375 -8.52222656 8.081875 -8.51757812 7.09375 C-7.60329874 2.51200272 -4.67433964 -0.07303656 0 0 Z " fill="#000000" transform="translate(104,95.5)"/>
</svg>
