<?xml version="1.0" encoding="UTF-8"?>
<svg version="1.1" xmlns="http://www.w3.org/2000/svg" width="512" height="512">
<path d="M0 0 C1.9490399 1.32158239 3.40773423 2.65210122 5.00390625 4.37890625 C25.90855709 25.72645223 54.53868329 36.86695191 84.19140625 37.62890625 C115.14009924 37.11147774 143.80341252 25.27655517 165.38769531 3.07519531 C166.57959207 1.82923314 167.76168929 0.57390675 168.94140625 -0.68359375 C171.95374092 0.28648013 174.94725987 1.29241638 177.94140625 2.31640625 C179.05902344 2.67992187 180.17664063 3.0434375 181.328125 3.41796875 C182.47925781 3.81757813 183.63039063 4.2171875 184.81640625 4.62890625 C185.90695312 4.99628906 186.9975 5.36367188 188.12109375 5.7421875 C191.69529931 7.73720805 192.55088777 9.51922118 193.94140625 13.31640625 C193.94140625 18.85290197 192.30103675 23.10384554 190.31640625 28.25390625 C187.60975087 35.58933459 187.11925799 40.25798512 190.31640625 47.37890625 C194.9968372 52.61653137 200.9313946 56.72287067 207.12890625 60.00390625 C211.04698138 63.22543469 211.53688102 66.36355688 212.56640625 71.19140625 C214.10537691 78.02755854 215.82807611 83.20307611 220.94140625 88.31640625 C221.11672914 91.18529206 221.17278239 93.9563327 221.13671875 96.82421875 C221.13247391 98.08514847 221.13247391 98.08514847 221.12814331 99.37155151 C221.11693055 102.06164671 221.09182428 104.75141135 221.06640625 107.44140625 C221.05637785 109.26301603 221.04725176 111.08463102 221.0390625 112.90625 C221.01868747 117.3765325 220.97954158 121.84609851 220.94140625 126.31640625 C210.71140625 126.31640625 200.48140625 126.31640625 189.94140625 126.31640625 C189.89242188 123.24714844 189.8434375 120.17789063 189.79296875 117.015625 C189.73897724 114.04690626 189.68166254 111.07826903 189.62402344 108.10961914 C189.58571277 106.0445766 189.55086359 103.97946685 189.51953125 101.91430664 C189.47392611 98.94783487 189.41592424 95.98182665 189.35546875 93.015625 C189.33814194 91.62799202 189.33814194 91.62799202 189.32046509 90.21232605 C189.29066055 88.92132744 189.29066055 88.92132744 189.26025391 87.60424805 C189.2402684 86.46840523 189.2402684 86.46840523 189.21987915 85.30961609 C189.04432013 83.00035437 189.04432013 83.00035437 186.94140625 80.31640625 C184.44140625 79.89973958 184.44140625 79.89973958 181.94140625 80.31640625 C171.07606891 91.18174359 179.29054126 110.95446575 178.94140625 126.31640625 C116.57140625 126.31640625 54.20140625 126.31640625 -10.05859375 126.31640625 C-10.38859375 111.13640625 -10.71859375 95.95640625 -11.05859375 80.31640625 C-16.53684456 79.86919265 -16.53684456 79.86919265 -19.05859375 81.31640625 C-19.961757 84.025896 -20.20516875 85.71775959 -20.26391602 88.51245117 C-20.28386124 89.35309616 -20.30380646 90.19374115 -20.32435608 91.05986023 C-20.34106857 91.9630751 -20.35778107 92.86628998 -20.375 93.796875 C-20.40617165 95.18885857 -20.40617165 95.18885857 -20.43797302 96.60896301 C-20.50336698 99.57386865 -20.56230637 102.53886297 -20.62109375 105.50390625 C-20.66428862 107.51368105 -20.70790322 109.52344688 -20.75195312 111.53320312 C-20.85903802 116.46084657 -20.9603342 121.38857924 -21.05859375 126.31640625 C-30.39437814 126.38586823 -39.73007379 126.43919803 -49.06606007 126.47184277 C-53.400985 126.48750936 -57.73573335 126.50876559 -62.07055664 126.54272461 C-66.25267463 126.57528289 -70.4346226 126.59325178 -74.61685753 126.60103798 C-76.21369797 126.60658787 -77.81052894 126.61742531 -79.40729713 126.63359642 C-81.64128469 126.65532433 -83.87456663 126.65837521 -86.10864258 126.65698242 C-87.38105301 126.66364426 -88.65346344 126.67030609 -89.96443176 126.6771698 C-93.05859375 126.31640625 -93.05859375 126.31640625 -94.96870422 124.92080688 C-96.38753125 122.83218513 -96.44591138 121.50143615 -96.45703125 118.984375 C-96.4631543 118.11433838 -96.46927734 117.24430176 -96.47558594 116.34790039 C-96.4547998 114.94012329 -96.4547998 114.94012329 -96.43359375 113.50390625 C-96.42489258 112.52993896 -96.41619141 111.55597168 -96.40722656 110.55249023 C-95.81796574 80.47362305 -88.90776441 51.0376671 -66.6875 29.59765625 C-54.19832191 18.7600931 -38.38376691 13.10375424 -23.05859375 7.56640625 C-20.68304047 6.70217389 -18.30825391 5.83591163 -15.93432617 4.96722412 C-14.47072252 4.43224436 -13.00609079 3.90006605 -11.5402832 3.37115479 C-8.85378268 2.39368794 -6.25029487 1.41597442 -3.71069336 0.09692383 C-2.05859375 -0.68359375 -2.05859375 -0.68359375 0 0 Z " fill="#000000" transform="translate(130.05859375,350.68359375)"/>
<path d="M0 0 C0.80072819 -0.00706559 1.60145638 -0.01413118 2.42644906 -0.02141088 C3.3003679 -0.0189958 4.17428673 -0.01658071 5.07468796 -0.01409245 C6.00759462 -0.01932912 6.94050128 -0.0245658 7.90167785 -0.02996117 C11.03529835 -0.04499196 14.16875601 -0.045667 17.30241013 -0.04633427 C19.54615175 -0.05395373 21.78989076 -0.06238086 24.03362656 -0.07155704 C30.13497694 -0.09353122 36.2362772 -0.102305 42.3376627 -0.10738349 C46.14893376 -0.11102392 49.96019163 -0.11726238 53.77145767 -0.12438488 C64.32813032 -0.14384364 74.88479201 -0.1603546 85.44148254 -0.16326141 C86.11691254 -0.16344898 86.79234254 -0.16363655 87.48824011 -0.16382981 C88.85744874 -0.16419605 90.22665737 -0.16455975 91.59586599 -0.16492092 C92.61535387 -0.16519514 92.61535387 -0.16519514 93.65543747 -0.16547489 C94.33592776 -0.16565544 95.01641806 -0.16583599 95.71752927 -0.16602201 C106.74061907 -0.16956264 117.76351339 -0.19657824 128.78653541 -0.23397278 C140.10944212 -0.27207655 151.43222031 -0.29097819 162.75520396 -0.29172093 C169.11035 -0.29251435 175.46524393 -0.3012832 181.82033157 -0.32971859 C187.79908419 -0.35587098 193.77737518 -0.3581198 199.75615883 -0.34206295 C201.94911517 -0.34024618 204.14209788 -0.34695966 206.33499718 -0.36288166 C209.33218872 -0.38331447 212.32776097 -0.37280603 215.3249321 -0.35466862 C216.18992805 -0.36786858 217.054924 -0.38106855 217.94613194 -0.39466852 C224.10652614 -0.30969576 228.15273877 1.39689193 232.95377731 5.26006222 C239.68476437 12.52244299 240.21314761 19.68270631 240.10612106 29.29131222 C239.73305962 36.56122752 237.79113486 42.37970906 232.55924606 47.67021847 C227.38597568 51.98757064 221.48527731 52.54148997 214.95377731 53.26006222 C215.27991013 53.70994503 215.60604294 54.15982784 215.94205856 54.62334347 C222.05096873 63.61551507 224.15709542 73.4707605 222.95377731 84.26006222 C221.27905156 92.41607127 218.71426701 99.17877043 212.95377731 105.26006222 C212.452332 105.80146847 211.95088669 106.34287472 211.43424606 106.90068722 C208.75299548 109.48408194 206.81754866 111.06586259 203.12174606 111.89678097 C199.23067127 112.82182894 197.06469356 113.68637247 193.95377731 116.26006222 C191.09273612 121.7464304 189.65384618 127.83582046 187.93815231 133.75224972 C182.18523704 153.46736198 171.28066061 170.67030033 156.95377731 185.26006222 C156.34405075 185.88267941 155.73432419 186.50529659 155.10612106 187.14678097 C142.6781403 198.88871609 125.99126825 205.40086793 108.95377731 205.26006222 C93.65535314 204.4345445 80.70449245 199.02524945 68.95377731 189.26006222 C68.12491013 188.59361691 67.29604294 187.92717159 66.44205856 187.24053097 C55.02982782 177.58402803 46.78215098 165.43532166 39.95377731 152.26006222 C39.07979294 150.59137081 39.07979294 150.59137081 38.18815231 148.88896847 C33.35329418 139.12124831 29.99518453 128.92842537 26.65299606 118.56865597 C26.35054977 117.64101437 26.04810349 116.71337276 25.73649216 115.75762081 C25.10344161 113.73762482 24.55599292 111.69092973 24.03580856 109.63896847 C23.17894781 107.0660501 23.17894781 107.0660501 20.70377731 106.22881222 C19.79627731 106.07412472 18.88877731 105.91943722 17.95377731 105.76006222 C8.85233955 103.70836196 1.09181653 99.20066828 -4.04622269 91.26006222 C-8.86752788 82.25305798 -9.8123842 74.36578108 -8.04622269 64.26006222 C-6.92068016 61.40720195 -5.63739218 58.83854539 -4.10481644 56.18584347 C-2.88565134 54.33421213 -2.88565134 54.33421213 -3.04622269 52.26006222 C-4.24247269 51.76506222 -5.43872269 51.27006222 -6.67122269 50.76006222 C-11.5363136 48.34912018 -14.30602417 44.87762858 -17.04622269 40.26006222 C-18.59716781 35.60722685 -18.35448929 30.94713377 -18.42122269 26.07256222 C-18.4586055 25.05613644 -18.49598831 24.03971066 -18.53450394 22.99248409 C-18.61468357 16.09258148 -17.56026271 11.57405871 -13.04622269 6.26006222 C-9.11374915 2.61533065 -5.45941085 0.01544072 0 0 Z M11.95377731 57.26006222 C10.95217575 58.13791378 10.95217575 58.13791378 9.93033981 59.03349972 C5.7397313 63.99924969 3.57930939 68.61329673 4.07877731 75.26006222 C5.15431762 81.51994849 7.88867876 85.66859283 12.76627731 89.57256222 C17.88715974 93.12794467 23.16158325 94.10515604 29.18033981 95.30693722 C30.52346237 95.57522335 30.52346237 95.57522335 31.89371872 95.84892941 C32.57353806 95.98460323 33.25335739 96.12027706 33.95377731 96.26006222 C34.1344072 96.90330441 34.31503708 97.54654659 34.50114059 98.20928097 C43.69736139 130.78818574 54.77762113 163.95313645 83.95377731 184.26006222 C87.53005414 186.21249031 91.15235368 187.80223471 94.95377731 189.26006222 C95.92315231 189.67256222 96.89252731 190.08506222 97.89127731 190.51006222 C110.59579638 193.62137301 123.14418724 192.0115355 134.65299606 185.70146847 C160.97788586 169.20930491 173.17125663 140.46459776 181.68400192 111.80132198 C181.93673874 110.98719845 182.18947556 110.17307491 182.44987106 109.33428097 C182.67602097 108.58751095 182.90217087 107.84074093 183.1351738 107.07134151 C183.95377731 105.26006222 183.95377731 105.26006222 186.51627731 103.94756222 C188.21783981 103.60724972 188.21783981 103.60724972 189.95377731 103.26006222 C197.54375285 100.99308933 202.63580869 98.03687409 206.95377731 91.26006222 C210.47246349 84.05932229 211.02548218 77.26352107 208.70377731 69.63506222 C205.95122956 62.20573193 201.15756568 55.8619564 193.95377731 52.26006222 C191.69151998 52.15467503 189.42607736 52.11609166 187.1613884 52.10616207 C186.45478596 52.10177982 185.74818353 52.09739756 185.0201689 52.09288251 C182.6404511 52.07947415 180.26077034 52.07331104 177.88102341 52.06719112 C176.17944292 52.0592916 174.47786411 52.05102274 172.77628708 52.04241085 C167.17661265 52.01616784 161.57693067 52.0008784 155.97721481 51.98662472 C154.0500971 51.98126549 152.12297943 51.97588799 150.19586182 51.97049236 C142.17846894 51.94885803 134.1610781 51.93012213 126.14366341 51.91886997 C114.65280996 51.90263753 103.16229505 51.86948322 91.67156923 51.81246912 C83.59333904 51.77375419 75.51519932 51.75423529 67.4368788 51.74894941 C62.61195803 51.74529735 57.78739814 51.73329204 52.96257782 51.70084667 C48.42018621 51.67073966 43.87837331 51.66446355 39.33590317 51.67623043 C37.67185559 51.67645096 36.00778096 51.66816266 34.34382629 51.65057659 C22.22907124 51.39110282 22.22907124 51.39110282 11.95377731 57.26006222 Z " fill="#000000" transform="translate(104.04622268676758,121.7399377822876)"/>
<path d="M0 0 C2.60499501 1.50912601 4.83845616 3.36279111 7.125 5.3125 C8.33585612 6.30869267 9.54679149 7.30478903 10.7578125 8.30078125 C11.54889404 8.96847534 11.54889404 8.96847534 12.35595703 9.6496582 C12.89849121 10.095271 13.44102539 10.54088379 14 11 C14.6081958 11.5468042 15.2163916 12.0936084 15.84301758 12.65698242 C18.65752225 14.40939784 20.45883266 14.30135042 23.75390625 14.1875 C24.85541016 14.16429687 25.95691406 14.14109375 27.09179688 14.1171875 C28.23712891 14.07851563 29.38246094 14.03984375 30.5625 14 C32.83420898 13.92355438 35.10641671 13.86042597 37.37890625 13.8125 C38.3851001 13.77769531 39.39129395 13.74289062 40.42797852 13.70703125 C43 14 43 14 44.79052734 15.21899414 C46.27718811 17.40817263 46.59092445 19.06836264 46.97265625 21.68359375 C48.75778883 31.455744 50.2441089 38.84006555 58.75561523 44.73461914 C61.85293018 46.61629026 64.97298751 48.40131354 68.21582031 50.02050781 C70 51 70 51 72 53 C72.64803701 58.36847505 71.38942798 61.74814317 69.15454102 66.45800781 C66.39948371 72.39804195 64.15194637 77.49130844 66.09375 83.99609375 C67.27887748 87.12206848 68.70736127 90.06996977 70.22265625 93.046875 C72.09653512 96.81435295 72.55990545 99.75623065 72 104 C70.890625 105.71484375 70.890625 105.71484375 69.25 106.9375 C68.62222656 107.41316406 67.99445313 107.88882813 67.34765625 108.37890625 C66.18556641 109.18134766 66.18556641 109.18134766 65 110 C63.98808594 110.71027344 62.97617187 111.42054688 61.93359375 112.15234375 C53.39334359 118 53.39334359 118 51 118 C50.9175 119.03125 50.835 120.0625 50.75 121.125 C49.92370374 127.69995739 48.71766341 136.28644583 44.75415039 141.70239258 C42.29035231 143.52495163 40.81626465 143.15522705 37.80078125 142.8359375 C23.33327887 141.56600373 23.33327887 141.56600373 10.6237793 147.59423828 C8.07878709 149.87005152 5.62233482 152.1904213 3.29907227 154.69311523 C1.38505673 156.61864148 0.04151344 156.99326478 -2.6484375 157.4296875 C-7.48624973 156.80945516 -10.02307754 154.26053807 -13.625 151.125 C-14.92704347 150.02031352 -16.23165269 148.9186426 -17.5390625 147.8203125 C-18.10834473 147.32805176 -18.67762695 146.83579102 -19.26416016 146.32861328 C-23.08194335 143.4064788 -25.7243785 142.76625827 -30.53515625 142.9453125 C-31.59154297 142.96980469 -32.64792969 142.99429688 -33.73632812 143.01953125 C-35.95793912 143.08997576 -38.17931873 143.16813051 -40.40039062 143.25390625 C-41.45548828 143.27582031 -42.51058594 143.29773438 -43.59765625 143.3203125 C-44.56195557 143.35398926 -45.52625488 143.38766602 -46.51977539 143.42236328 C-49 143 -49 143 -50.77685547 141.26513672 C-52.05462464 138.89884084 -52.56290571 137.08520274 -52.97265625 134.4375 C-54.80636038 124.92713201 -56.4642052 118.07473093 -64.75561523 112.38671875 C-67.85210649 110.51009412 -70.97811384 108.73069811 -74.21582031 107.10888672 C-76 106 -76 106 -78 103 C-77.64631028 96.74122975 -75.39107375 91.47988648 -72.99609375 85.78515625 C-69.80529671 77.80053015 -72.8335157 72.5125342 -76.00390625 65.05859375 C-77.87001676 60.37099557 -78.53261176 57.00052152 -77 52 C-74.77734375 49.7421875 -74.77734375 49.7421875 -71.9375 47.875 C-71.01839844 47.25367188 -70.09929687 46.63234375 -69.15234375 45.9921875 C-66 44 -66 44 -63.97827148 43.05639648 C-59.2762305 40.67737147 -57.45209045 38.59929366 -55.79296875 33.55078125 C-55.22733729 31.47943621 -54.69282512 29.39937703 -54.1875 27.3125 C-53.64883499 25.22278538 -53.10108327 23.13538562 -52.54296875 21.05078125 C-52.31633545 20.12950439 -52.08970215 19.20822754 -51.85620117 18.2590332 C-51 16 -51 16 -48 14 C-45.66259766 13.93164062 -45.66259766 13.93164062 -42.9140625 14.15625 C-28.65202911 15.34289897 -28.65202911 15.34289897 -16.3125 9.25 C-14.5039501 7.53900673 -12.72895723 5.79138426 -11 4 C-7.29614516 0.49046505 -5.14842234 -0.95650241 0 0 Z M-6 34 C-8.29754708 37.20824481 -9.63871543 40.4519438 -10.82421875 44.1953125 C-11.13037109 45.15824219 -11.43652344 46.12117188 -11.75195312 47.11328125 C-12.06068359 48.10714844 -12.36941406 49.10101563 -12.6875 50.125 C-13.00783203 51.12660156 -13.32816406 52.12820313 -13.65820312 53.16015625 C-15.4150494 58.4805143 -15.4150494 58.4805143 -16 64 C-17.38505737 63.97643433 -17.38505737 63.97643433 -18.7980957 63.95239258 C-22.22539889 63.90125168 -25.65229642 63.86364465 -29.07983398 63.83520508 C-30.56297199 63.82012232 -32.04606544 63.79965311 -33.52905273 63.77368164 C-35.66140745 63.73727384 -37.79317235 63.72026927 -39.92578125 63.70703125 C-41.20880127 63.6913208 -42.49182129 63.67561035 -43.8137207 63.65942383 C-46.95152285 63.73601573 -46.95152285 63.73601573 -48.92749023 65.3449707 C-50.22459573 67.06176794 -50.22459573 67.06176794 -50.234375 69.7734375 C-48.33317233 74.74303687 -44.57431002 76.74212665 -40.25 79.625 C-38.62958626 80.74128502 -37.00977835 81.85845009 -35.390625 82.9765625 C-34.24883789 83.75435059 -34.24883789 83.75435059 -33.08398438 84.54785156 C-30.63045702 86.25750254 -28.29697446 88.08585462 -26 90 C-27.28161369 95.0118389 -28.61202012 99.98358378 -30.34765625 104.859375 C-30.57880127 105.51478271 -30.80994629 106.17019043 -31.0480957 106.84545898 C-31.72438206 108.74070741 -32.41657471 110.6302569 -33.109375 112.51953125 C-34.05089981 116.19891112 -34.05706743 118.37500615 -33 122 C-30.93325381 123.86086918 -30.93325381 123.86086918 -28 124 C-22.44581621 121.20919407 -17.65433257 117.60512286 -12.75 113.8125 C-11.35181603 112.73196914 -9.9508845 111.6549817 -8.546875 110.58203125 C-7.93682617 110.10999268 -7.32677734 109.6379541 -6.69824219 109.15161133 C-5 108 -5 108 -2 107 C0.00537109 108.12402344 0.00537109 108.12402344 2.2734375 109.859375 C3.0984375 110.48070312 3.9234375 111.10203125 4.7734375 111.7421875 C5.63195312 112.40476562 6.49046875 113.06734375 7.375 113.75 C9.06886484 115.03836386 10.76413641 116.32488071 12.4609375 117.609375 C13.21165527 118.18655273 13.96237305 118.76373047 14.73583984 119.35839844 C17.10308084 121.0747375 19.40347577 122.65050816 22 124 C24.43028072 123.33719617 26.2010972 122.7989028 28 121 C27.58330689 114.31306778 26.09625224 108.50347815 23.9375 102.1875 C23.37879267 100.53694815 22.82520127 98.88465357 22.27734375 97.23046875 C22.03234131 96.51270264 21.78733887 95.79493652 21.53491211 95.05541992 C21 93 21 93 21 89 C23.11825969 87.20113651 25.13085671 85.70467241 27.4375 84.1875 C28.72110689 83.31013497 30.00365748 82.43122258 31.28515625 81.55078125 C31.91695801 81.12104004 32.54875977 80.69129883 33.19970703 80.24853516 C36.92504388 77.66494787 40.45945819 74.82868684 44 72 C43.74438677 69.6568787 43.40729228 67.32156597 43 65 C40.10075634 63.55037817 37.47699645 63.77873519 34.2421875 63.68359375 C33.57913605 63.66281265 32.91608459 63.64203156 32.23294067 63.62062073 C30.11373306 63.55520769 27.994401 63.49627895 25.875 63.4375 C24.43878919 63.39430691 23.00259098 63.35069236 21.56640625 63.30664062 C18.04440406 63.19953501 14.52226175 63.09824425 11 63 C10.73783691 62.19256348 10.47567383 61.38512695 10.20556641 60.55322266 C9.23008683 57.55861684 8.24921599 54.56584774 7.26464844 51.57421875 C6.83962446 50.27903119 6.41675726 48.98313379 5.99609375 47.68652344 C5.39109605 45.82301637 4.77769187 43.96224511 4.1640625 42.1015625 C3.79748535 40.98088379 3.4309082 39.86020508 3.05322266 38.70556641 C2.17115358 35.90286842 2.17115358 35.90286842 0 34 C-2.95746492 33.41654524 -2.95746492 33.41654524 -6 34 Z " fill="#000000" transform="translate(406,288)"/>
<path d="M0 0 C0.66554901 -0.00511093 1.33109802 -0.01022186 2.01681519 -0.01548767 C4.21125343 -0.02935842 6.40537671 -0.02842887 8.59985352 -0.02612305 C10.12915666 -0.03001136 11.65845873 -0.03434631 13.1877594 -0.03910828 C16.39132184 -0.04656505 19.59477407 -0.04628317 22.79833984 -0.04101562 C26.89853639 -0.03522152 30.99828112 -0.05215284 35.09840298 -0.0753603 C38.25631843 -0.09011013 41.41412537 -0.09096766 44.57206917 -0.08785057 C46.08350583 -0.08836315 47.59494867 -0.09358907 49.10635185 -0.10366249 C51.22223941 -0.11603439 53.3372509 -0.10923175 55.453125 -0.09765625 C56.65573471 -0.09828568 57.85834442 -0.0989151 59.09739685 -0.0995636 C63.81236849 0.45288503 66.17869653 2.22933381 69.58300781 5.42790222 C71.86586181 9.23221707 71.77944418 12.52546535 71.62329102 16.82275391 C71.60740433 17.65711881 71.59151764 18.49148371 71.57514954 19.35113239 C71.34972896 28.75319416 70.68699967 38.12942277 69.97875977 47.50512695 C69.84364057 49.36122876 69.70913125 51.21737506 69.57519531 53.07356262 C69.22612716 57.88899743 68.86894589 62.70379483 68.5098877 67.51849365 C68.07804659 73.33291702 67.65661099 79.14810332 67.23336792 84.96315765 C66.59383271 93.73425732 65.94134547 102.50430556 65.29125977 111.2746582 C40.54125977 111.2746582 15.79125977 111.2746582 -9.70874023 111.2746582 C-11.20613578 90.49383843 -11.20613578 90.49383843 -11.84155273 81.53442383 C-12.27266956 75.45612661 -12.70500668 69.3779359 -13.14526367 63.30029297 C-13.50070801 58.39230516 -13.85013495 53.4839205 -14.19564819 48.57522392 C-14.3275069 46.71630434 -14.46141846 44.85752902 -14.5975647 42.99891853 C-15.02930474 37.09343509 -15.40521451 31.18813567 -15.70874023 25.2746582 C-15.75339417 24.47019634 -15.7980481 23.66573448 -15.84405518 22.83689499 C-15.96098404 20.51458116 -16.03883088 18.19441616 -16.10327148 15.87011719 C-16.14022629 15.18821099 -16.17718109 14.5063048 -16.21525574 13.80373478 C-16.26843266 10.09935961 -15.68740765 7.78335815 -13.43408203 4.92494202 C-8.9019515 0.5176298 -6.30513847 0.02417199 0 0 Z " fill="#000000" transform="translate(186.708740234375,-0.274658203125)"/>
<path d="M0 0 C3.52697137 1.54304997 6.09724334 3.67782497 9 6.1875 C25.43830114 19.75182002 44.77317369 26.52604657 66.140625 24.59765625 C83.40661317 21.92387468 99.56733983 13.96642418 111.6796875 1.234375 C113 0 113 0 115 0 C115.27972656 0.95519531 115.55945313 1.91039062 115.84765625 2.89453125 C119.20365161 13.89465897 123.28366077 24.12746738 133 31 C127.01303571 44.36007303 108.9705082 53.76599503 96 59 C69.41770394 68.73712799 40.87759855 68.72351645 15 57 C14.04915527 56.57291748 14.04915527 56.57291748 13.07910156 56.13720703 C1.04454152 50.58633525 -9.98376093 42.66881453 -18 32 C-17.34644531 31.41605469 -17.34644531 31.41605469 -16.6796875 30.8203125 C-7.71928028 22.40296026 -2.79149293 11.88457384 0 0 Z " fill="#000000" transform="translate(157,312)"/>
<path d="M0 0 C18.70968943 -1.0778778 18.70968943 -1.0778778 25.12304688 4.21679688 C26.02120117 5.06854492 26.02120117 5.06854492 26.9375 5.9375 C28.23646409 7.05290096 29.53716938 8.16627828 30.83984375 9.27734375 C31.37988037 9.77484131 31.91991699 10.27233887 32.47631836 10.78491211 C35.56820975 13.25059765 38.99828917 13.34935551 42.8359375 13.265625 C47.88671701 12.64567372 51.70760945 10.28575156 55.28125 6.73046875 C59.64519955 2.45406757 62.55914039 -0.22983901 68.76049805 -0.41503906 C70.46973529 -0.38707944 72.1787358 -0.33681444 73.88671875 -0.265625 C74.76501343 -0.2464502 75.64330811 -0.22727539 76.54821777 -0.20751953 C78.69934911 -0.15778239 80.84984027 -0.0815656 83 0 C83.0463852 8.25819567 83.08190057 16.51633671 83.10362434 24.77463055 C83.11405181 28.60948483 83.128192 32.44424983 83.15087891 36.27905273 C83.17264438 39.98136584 83.18457643 43.68359319 83.18975449 47.38596535 C83.1934436 48.79692751 83.20064754 50.2078851 83.21146011 51.61881065 C83.22602342 53.5982847 83.22681734 55.57784544 83.22705078 57.55737305 C83.231492 58.68322311 83.23593323 59.80907318 83.24050903 60.96903992 C82.97700763 64.28975613 82.44391523 67.55608477 80 70 C74.96869211 70.61438413 72.10733573 70.4773512 67.95703125 67.47265625 C66.56123735 66.35352269 65.18015964 65.21584629 63.8125 64.0625 C62.32569406 62.87315336 60.83739674 61.68566884 59.34765625 60.5 C58.61691895 59.90960938 57.88618164 59.31921875 57.13330078 58.7109375 C54.06140228 56.24723131 50.93929413 53.87166667 47.75 51.5625 C46.75484375 50.82128906 45.7596875 50.08007812 44.734375 49.31640625 C42.11486207 47.67904651 42.11486207 47.67904651 39.63354492 48.69555664 C36.84673784 50.07591357 34.58261432 51.64573608 32.12890625 53.5546875 C31.22462891 54.25207031 30.32035156 54.94945312 29.38867188 55.66796875 C28.45603516 56.39628906 27.52339844 57.12460937 26.5625 57.875 C11.10318121 69.86911409 11.10318121 69.86911409 6.3125 70.4375 C3 70 3 70 1.31425476 68.87834167 C-0.63324064 66.09496825 -0.35955771 63.88141911 -0.34057617 60.5090332 C-0.34101425 59.8551059 -0.34145233 59.20117859 -0.34190369 58.5274353 C-0.33981539 56.36824577 -0.31648388 54.20983495 -0.29296875 52.05078125 C-0.28737291 50.55291671 -0.28310275 49.05504668 -0.28010559 47.55717468 C-0.2686558 43.61641254 -0.23918778 39.67598255 -0.20599365 35.73535156 C-0.17529548 31.71358738 -0.16160082 27.69176947 -0.14648438 23.66992188 C-0.11431793 15.77979556 -0.06312028 7.88993911 0 0 Z " fill="#000000" transform="translate(362,442)"/>
<path d="M0 0 C16.73128679 3.83191199 31.74623131 22.63067368 40.52001953 36.29956055 C48.93323391 49.90461843 55 65.84471533 55 82 C35.2 82 15.4 82 -5 82 C-5 68.5 -5 68.5 -4.54101562 62.21191406 C-4.49224777 61.5274118 -4.44347992 60.84290955 -4.39323425 60.13766479 C-4.23495862 57.93000308 -4.07069094 55.72283523 -3.90625 53.515625 C-3.79377299 51.96338574 -3.68167861 50.41111872 -3.56994629 48.85882568 C-3.27782542 44.8144948 -2.98058075 40.77055703 -2.68218994 36.72668457 C-2.37741946 32.58364381 -2.07760328 28.44024469 -1.77734375 24.296875 C-1.18968631 16.19756218 -0.59660394 8.09865871 0 0 Z " fill="#000000" transform="translate(268,29)"/>
<path d="M0 0 C1.01516937 12.9988471 2.01733088 25.99865306 3 39 C3.05754456 39.76125183 3.11508911 40.52250366 3.17437744 41.30682373 C3.52131034 45.91223858 3.85737328 50.51834383 4.1875 55.125 C4.27112793 56.24608154 4.35475586 57.36716309 4.44091797 58.5222168 C4.97067526 66.07154295 5 73.38872023 5 81 C-14.8 81 -34.6 81 -55 81 C-52.16174245 52.61742447 -39.45823696 28.15889647 -17.390625 9.9453125 C-4.85368311 0 -4.85368311 0 0 0 Z " fill="#000000" transform="translate(161,30)"/>
<path d="M0 0 C2.43690064 3.65535097 3.53975806 7.34995068 4.90234375 11.50390625 C5.86376393 14.29799567 5.86376393 14.29799567 9 16 C11.58885171 16.29991069 14.09149082 16.50865225 16.6875 16.625 C17.38939453 16.66367187 18.09128906 16.70234375 18.81445312 16.7421875 C20.54254655 16.8362334 22.27123675 16.9191968 24 17 C21.40587824 19.7522285 18.9225201 21.69699899 15.6875 23.625 C12.65479291 25.8429938 12.65479291 25.8429938 11.63671875 29.328125 C11.88426601 31.97403999 12.35563819 34.42255278 13 37 C13.17917969 37.79921875 13.35835938 38.5984375 13.54296875 39.421875 C13.98405134 41.2923305 14.485653 43.14835079 15 45 C11.46233115 43.01890544 8.17848939 41.1347777 4.9375 38.6875 C2.15600943 36.80354368 2.15600943 36.80354368 -0.8125 36.8125 C-5.58517321 38.59055473 -9.14962373 41.72290197 -13 45 C-13.66 44.67 -14.32 44.34 -15 44 C-14.69964844 43.19175781 -14.39929688 42.38351562 -14.08984375 41.55078125 C-13.70957031 40.48214844 -13.32929688 39.41351563 -12.9375 38.3125 C-12.36322266 36.72888672 -12.36322266 36.72888672 -11.77734375 35.11328125 C-10.93792029 31.75136922 -10.70833215 30.20312794 -12 27 C-14.5024065 24.48437795 -14.5024065 24.48437795 -17.5625 22.25 C-19.38572441 20.84716236 -21.20133475 19.43419107 -23 18 C-23 17.67 -23 17.34 -23 17 C-21.95199219 16.96261719 -20.90398437 16.92523438 -19.82421875 16.88671875 C-18.44527695 16.82105485 -17.06637229 16.75460765 -15.6875 16.6875 C-14.99720703 16.66494141 -14.30691406 16.64238281 -13.59570312 16.61914062 C-10.80278765 16.47072483 -8.55434799 16.34807897 -6.15234375 14.83984375 C-4.56089428 12.29891935 -3.75135615 9.73868349 -2.875 6.875 C-1.08333333 1.08333333 -1.08333333 1.08333333 0 0 Z " fill="#000000" transform="translate(403,346)"/>
</svg>
