<?xml version="1.0" encoding="UTF-8"?>
<svg version="1.1" xmlns="http://www.w3.org/2000/svg" width="512" height="512">
<path d="M0 0 C4.17571785 -0.06029522 8.35132235 -0.09668322 12.52734375 -0.12890625 C14.29241272 -0.15482849 14.29241272 -0.15482849 16.09313965 -0.18127441 C30.15955772 -0.26266873 39.44388627 3.90367742 49.671875 13.58203125 C55.0305084 19.2583156 59.54611343 27.2945154 61 35 C60.87888718 37.07526302 60.87888718 37.07526302 60.53240967 39.33494568 C60.34514234 40.63060361 60.34514234 40.63060361 60.15409184 41.95243645 C60.01397395 42.89553232 59.87385607 43.8386282 59.72949219 44.81030273 C57.74547042 59.3082615 56.51074461 73.82547464 55.75 88.4375 C55.6808778 89.75384682 55.6117556 91.07019363 55.54053879 92.42642975 C53.94403872 127.74989231 58.47135034 154.75373798 82.76953125 181.52734375 C90.92964646 190.44160839 99.62128719 198.75238251 108.5625 206.875 C109.11767241 207.38066041 109.67284481 207.88632083 110.24484062 208.40730429 C124.68411578 221.53687721 139.56841124 234.04746503 155 246 C156.12764538 245.03770644 157.25469282 244.07471216 158.38148499 243.11141968 C159.00917314 242.57522696 159.63686129 242.03903423 160.28357029 241.48659325 C162.02439198 239.9788742 163.68930537 238.42654513 165.30859375 236.7890625 C165.82744141 236.26699219 166.34628906 235.74492187 166.88085938 235.20703125 C167.39455078 234.68496094 167.90824219 234.16289062 168.4375 233.625 C169.24864258 232.80708984 169.24864258 232.80708984 170.07617188 231.97265625 C171.38646723 230.65076536 172.69358284 229.32572382 174 228 C172.62888384 224.92082604 171.07245069 222.83212964 168.6776886 220.4708252 C167.99194763 219.7895607 167.30620667 219.1082962 166.59968567 218.40638733 C165.84789536 217.66964279 165.09610504 216.93289825 164.3215332 216.17382812 C163.52959564 215.38962997 162.73765808 214.60543182 161.92172241 213.79747009 C160.20228118 212.09568143 158.48065121 210.39610202 156.75710487 208.69847107 C154.03367643 206.01439232 151.31777793 203.32291193 148.60404968 200.62902832 C140.88782963 192.9709309 133.16219114 185.32245904 125.42163086 177.68896484 C120.68798041 173.02061422 115.96746088 168.33923302 111.25398827 163.65049744 C109.45198624 161.86280072 107.64531492 160.0797984 105.83400917 158.30152893 C103.30800257 155.82097424 100.79760959 153.32558613 98.2902832 150.82617188 C97.5324202 150.08942734 96.77455719 149.3526828 95.99372864 148.59361267 C95.31644714 147.91234818 94.63916565 147.23108368 93.94136047 146.5291748 C93.34571446 145.9407354 92.75006845 145.35229599 92.13637257 144.74602509 C91 143 91 143 91.21136665 140.90677261 C92.29418415 138.288716 93.86627131 136.77470365 95.87719727 134.78222656 C96.69797256 133.96167786 97.51874786 133.14112915 98.36439514 132.29571533 C99.70189064 130.98144562 99.70189064 130.98144562 101.06640625 129.640625 C101.97502914 128.73624695 102.88365204 127.8318689 103.81980896 126.90008545 C106.23153764 124.49979247 108.65214002 122.10864631 111.07470703 119.71929932 C113.54676832 117.27796639 116.01032305 114.82808261 118.47460938 112.37890625 C123.30811895 107.57753826 128.15105773 102.78578051 133 98 C133.94738541 98.8259668 134.89477081 99.65193359 135.87086487 100.50292969 C139.59302821 103.69392598 143.42686969 106.72587304 147.28062916 109.75558949 C162.31965747 121.62003317 176.78556135 134.0931621 190.9375 147 C191.83079931 147.81234517 191.83079931 147.81234517 192.74214506 148.64110136 C221.47929425 174.83985275 244.90146574 199.48843699 247.6796875 239.73828125 C247.75299152 240.73837113 247.75299152 240.73837113 247.82777643 241.75866485 C249.87791028 271.40997083 244.23525805 301.94674207 241 331 C191.5 331 142 331 91 331 C90.67 316.81 90.34 302.62 90 288 C80.1218039 278.76480112 80.1218039 278.76480112 70.0546875 269.8046875 C67.33075213 267.41218153 64.66660014 264.95590581 62 262.5 C58.041452 258.85577839 54.04823025 255.26086096 49.984375 251.734375 C45.94625309 248.20499286 41.98085319 244.59365774 38 241 C36.33359149 239.49971321 34.66692647 237.99971128 33 236.5 C30.47499507 234.2282871 27.95086696 231.95564586 25.4296875 229.6796875 C21.64089159 226.26166061 17.84694054 222.8525546 14 219.5 C13.40669577 218.95904662 12.81339153 218.41809324 12.20210838 217.86074734 C10.02358838 215.93384944 10.02358838 215.93384944 7.46178627 214.39341068 C3.86552326 211.85955224 0.70775 209.42727692 -0.57003069 205.04504085 C-1.49908345 199.06236487 -1.25205772 193.00997258 -1.13525391 186.97631836 C-1.13243074 184.93560933 -1.13402125 182.89489015 -1.13967896 180.85418701 C-1.14254177 175.33127233 -1.08385947 169.8105408 -1.01393938 164.28813243 C-0.95131619 158.51068822 -0.94554349 152.73319084 -0.9336853 146.95545959 C-0.90263599 136.02236882 -0.82061864 125.09028106 -0.72019041 114.15763146 C-0.6083158 101.70798302 -0.5534088 89.25828602 -0.50323606 76.80825984 C-0.39878277 51.20495104 -0.22295366 25.60253178 0 0 Z " fill="#000000" transform="translate(0,181)"/>
<path d="M0 0 C1.11503906 0.00322266 2.23007812 0.00644531 3.37890625 0.00976562 C4.53777344 0.01814453 5.69664062 0.02652344 6.890625 0.03515625 C8.06496094 0.03966797 9.23929688 0.04417969 10.44921875 0.04882812 C13.34640572 0.06060531 16.24348954 0.07705299 19.140625 0.09765625 C19.51501378 26.82747652 19.79683751 53.55690179 19.96961975 80.28881931 C20.05199262 92.70214746 20.16421279 105.11384309 20.34765625 117.52612305 C20.50754165 128.34959586 20.61045084 139.17188613 20.64604092 149.99650711 C20.66683526 155.72454456 20.71540214 161.44920031 20.83230591 167.17614937 C20.94165708 172.57732728 20.97427157 177.97376245 20.9503479 183.37594223 C20.95471777 185.3485127 20.98612647 187.32125642 21.0479126 189.29286385 C21.29613093 197.62878141 21.46741338 204.91856834 15.73776245 211.46461296 C12.45611902 214.74208234 8.9491703 217.64970438 5.2612896 220.4565171 C0.03130081 224.50389892 -4.82872727 229.04229619 -9.734375 233.47265625 C-10.57742188 234.23320312 -11.42046875 234.99375 -12.2890625 235.77734375 C-13.13726562 236.54304687 -13.98546875 237.30875 -14.859375 238.09765625 C-16.52578351 239.59794304 -18.19244853 241.09794497 -19.859375 242.59765625 C-20.684375 243.34015625 -21.509375 244.08265625 -22.359375 244.84765625 C-29.859375 251.59765625 -29.859375 251.59765625 -32.3515625 253.83984375 C-34.04530394 255.36473869 -35.73798669 256.89081027 -37.4296875 258.41796875 C-41.17501756 261.79678333 -44.92455707 265.1666159 -48.734375 268.47265625 C-52.71864487 271.93864711 -56.60118471 275.51153747 -60.47216797 279.10302734 C-63.85488376 282.22736484 -67.31139367 285.14100514 -70.859375 288.09765625 C-71.189375 302.28765625 -71.519375 316.47765625 -71.859375 331.09765625 C-121.359375 331.09765625 -170.859375 331.09765625 -221.859375 331.09765625 C-230.41008064 259.09592 -230.41008064 259.09592 -228.96484375 240.2578125 C-228.91403774 239.55419626 -228.86323173 238.85058001 -228.81088614 238.12564206 C-225.60742461 196.6830379 -197.63451645 170.48088249 -168.359375 143.72265625 C-167.72018741 143.13692195 -167.08099982 142.55118766 -166.42244291 141.94770384 C-149.75320644 126.69482092 -132.59402331 112.09704411 -114.859375 98.09765625 C-111.06147229 101.31496306 -107.30182703 104.53530398 -103.74414062 108.02001953 C-103.02069458 108.72740265 -102.29724854 109.43478577 -101.55187988 110.16360474 C-98.32870583 113.34181888 -95.10785569 116.52226497 -91.89550781 119.71142578 C-90.19572178 121.39452158 -88.49057102 123.07221561 -86.78027344 124.74462891 C-84.30496904 127.165505 -81.84621203 129.60211474 -79.390625 132.04296875 C-78.61996704 132.79095734 -77.84930908 133.53894592 -77.05529785 134.30960083 C-76.35706909 135.01067963 -75.65884033 135.71175842 -74.93945312 136.43408203 C-74.31880981 137.04663849 -73.6981665 137.65919495 -73.05871582 138.29031372 C-71.859375 140.09765625 -71.859375 140.09765625 -72.08233547 141.98598671 C-73.01580898 144.52277861 -74.17906826 145.78687763 -76.09266663 147.69171143 C-76.78400192 148.38717072 -77.47533722 149.08263 -78.18762207 149.79916382 C-78.95078735 150.55154327 -79.71395264 151.30392273 -80.50024414 152.07910156 C-81.30018295 152.87947845 -82.10012177 153.67985535 -82.92430115 154.50448608 C-85.57399665 157.15208915 -88.23416523 159.78890389 -90.89453125 162.42578125 C-92.73221471 164.25787041 -94.56923757 166.09062239 -96.40562439 167.92401123 C-100.74917193 172.257269 -105.09933537 176.58378051 -109.45276684 180.90710521 C-114.40903039 185.82983466 -119.35677632 190.76108716 -124.30382359 195.69307566 C-134.47955415 205.83745001 -144.66594226 215.97107141 -154.859375 226.09765625 C-153.32649914 229.32080312 -151.71786812 231.47501223 -149.1640625 233.98828125 C-148.44863281 234.69726562 -147.73320312 235.40625 -146.99609375 236.13671875 C-146.24972656 236.86632812 -145.50335938 237.5959375 -144.734375 238.34765625 C-143.98027344 239.09273437 -143.22617187 239.8378125 -142.44921875 240.60546875 C-140.59036728 242.44079045 -138.72700495 244.27127535 -136.859375 246.09765625 C-135.88515594 245.24780151 -134.91093689 244.39794678 -133.90719604 243.52233887 C-130.51401098 240.61364606 -127.01994952 237.86626182 -123.47833729 235.14162064 C-110.52634924 225.15158549 -98.10493546 214.57440853 -85.984375 203.59765625 C-85.21624898 202.90392568 -85.21624898 202.90392568 -84.43260527 202.19618034 C-58.00480408 178.25671133 -38.99202829 156.15410907 -36.9128418 119.43488312 C-35.81220667 97.06231852 -37.43930438 74.29868943 -40.2441864 52.11224365 C-40.43938779 50.50827099 -40.43938779 50.50827099 -40.63853264 48.87189484 C-40.8853118 46.90722355 -41.15475554 44.94518048 -41.45341682 42.9877243 C-42.57009023 34.19604245 -40.06170183 26.88561259 -34.921875 19.72265625 C-26.00455987 8.781711 -14.60714283 -0.07452624 0 0 Z " fill="#000000" transform="translate(492.859375,180.90234375)"/>
<path d="M0 0 C1.00039307 0.27287842 1.00039307 0.27287842 2.02099609 0.55126953 C20.55744627 5.72004296 37.38263352 15.63324392 52 28 C52.81210937 28.67675781 53.62421875 29.35351562 54.4609375 30.05078125 C73.71139565 46.65961501 86.98076816 69.06489137 94.375 93.25 C94.61379883 94.02891602 94.85259766 94.80783203 95.09863281 95.61035156 C98.55525194 107.61097281 99.41201829 119.63114952 99.375 132.0625 C99.37412384 132.7854425 99.37324768 133.50838501 99.37234497 134.25323486 C99.22681873 170.78586114 84.80164896 201.65117823 60 228 C59.17822266 228.90105469 59.17822266 228.90105469 58.33984375 229.8203125 C52.87326092 235.5958177 46.43820926 240.36262319 40 245 C39.67 245 39.34 245 39 245 C38.96036133 244.01829834 38.92072266 243.03659668 38.87988281 242.02514648 C38.72519777 238.30601625 38.54822016 234.58819741 38.36523438 230.87036133 C38.28969616 229.27557675 38.21983044 227.68051113 38.15625 226.08520508 C37.22722452 203.0410184 30.78635854 183.17450922 13.734375 166.828125 C-1.51615851 153.79952353 -20.86600985 146.9616739 -40.9453125 148.25390625 C-61.25211797 150.19122773 -79.74787274 158.9788077 -93.1875 174.5625 C-98.16905939 181.12257822 -101.64322793 188.51421145 -105 196 C-105.36222656 196.80179688 -105.72445312 197.60359375 -106.09765625 198.4296875 C-111.57640693 212.58083247 -110.51393045 230.09584297 -111 245 C-116.50871232 241.48015947 -121.62925466 237.87542025 -126.375 233.375 C-126.92389893 232.85848877 -127.47279785 232.34197754 -128.03833008 231.80981445 C-152.55594842 208.47368284 -170.02257697 177.27485501 -171.38545227 142.77581787 C-171.46697151 139.26607217 -171.46886721 135.760393 -171.4375 132.25 C-171.43412628 131.51087372 -171.43075256 130.77174744 -171.42727661 130.01022339 C-171.1856885 93.32094377 -156.42313748 59.8715632 -130.83203125 33.67578125 C-97.0720143 0.47566093 -45.66339411 -12.99938027 0 0 Z M-71.984375 75.26953125 C-80.00737441 86.13789673 -81.0733929 97.92040045 -80 111 C-77.49780411 123.12492636 -69.80768742 132.7599904 -60 140 C-48.69386684 146.28950454 -36.39388749 147.93859707 -23.6875 145.31640625 C-12.19446565 141.38200102 -2.3075935 133.74341212 3.640625 123.05078125 C8.77606293 111.99778409 10.39791401 98.68908284 6.375 86.9375 C0.85336225 74.37960858 -7.82510063 65.21919973 -20.5546875 59.875 C-39.8841957 52.95837087 -59.03933968 60.31032086 -71.984375 75.26953125 Z " fill="#000000" transform="translate(292,4)"/>
<path d="M0 0 C9.42466421 6.91246067 17.05070486 16.66447216 19.421875 28.35546875 C19.50636936 29.9738236 19.539665 31.59526685 19.53540039 33.21582031 C19.53528709 34.65686127 19.53528709 34.65686127 19.53517151 36.12701416 C19.53001022 37.15631042 19.52484894 38.18560669 19.51953125 39.24609375 C19.5181163 40.30584412 19.51670135 41.36559448 19.51524353 42.4574585 C19.50964882 45.84015737 19.49709725 49.2227899 19.484375 52.60546875 C19.47935932 54.89973863 19.47479653 57.19400954 19.47070312 59.48828125 C19.45968111 65.11069969 19.44294821 70.73307948 19.421875 76.35546875 C15.73608163 77.34113618 12.0479651 78.31782424 8.359375 79.29296875 C7.32103516 79.57076172 6.28269531 79.84855469 5.21289062 80.13476562 C-18.82826428 86.46941914 -46.28051823 85.31211142 -69.578125 76.35546875 C-71.13249455 74.8010992 -70.73593763 73.29698149 -70.77099609 71.13378906 C-70.78705902 70.23484924 -70.80312195 69.33590942 -70.81967163 68.409729 C-70.86430587 64.2443512 -70.90529068 60.0791364 -70.92822266 55.91357422 C-70.94466331 53.72954566 -70.97179252 51.54556817 -71.01025391 49.36181641 C-71.32771991 31.23864857 -69.93124645 18.35333536 -56.99609375 4.68359375 C-41.74951 -9.70977485 -17.37512065 -11.0832209 0 0 Z " fill="#000000" transform="translate(281.578125,187.64453125)"/>
<path d="M0 0 C4.61581142 2.18643699 6.72864085 4.49599804 9 9 C9.82885269 14.54808604 9.7240695 19.47140883 7.3125 24.5625 C4.21064779 27.8320199 1.61649202 29.75850523 -2.90234375 30.43359375 C-9.05071801 30.44150672 -13.31314296 30.4465054 -18 26 C-21.88937897 20.55860924 -21.79042609 15.48149391 -21 9 C-16.63929544 -0.20593186 -9.3488659 -1.1401056 0 0 Z " fill="#000000" transform="translate(262,91)"/>
</svg>
