<?xml version="1.0" encoding="UTF-8"?>
<svg version="1.1" xmlns="http://www.w3.org/2000/svg" width="512" height="512">
<path d="M0 0 C1.39201042 0.97180015 2.78534612 1.94170353 4.1796875 2.91015625 C4.95924805 3.45172363 5.73880859 3.99329102 6.54199219 4.55126953 C24.96334565 17.25037532 43.54285008 29.5400639 63.453125 39.8046875 C70.23562167 43.69977844 73.71692163 47.98351554 76.1875 55.375 C77.14480322 61.79553363 76.94342741 67.88260834 73.578125 73.55859375 C69.55259379 78.8166612 64.91546916 83.10191648 58.22265625 84.2109375 C57.55105469 84.26507813 56.87945312 84.31921875 56.1875 84.375 C55.22650391 84.45621094 55.22650391 84.45621094 54.24609375 84.5390625 C39.75152199 84.26402319 24.35858088 71.48999143 12.30371094 64.27929688 C11.68969925 63.91387283 11.07568756 63.54844879 10.44306946 63.17195129 C8.75684246 62.16770388 7.07351303 61.15859572 5.39038086 60.14916992 C2.00398684 58.27334666 -1.1729346 56.69579033 -4.8125 55.375 C-7.32349157 56.46673546 -8.89426904 57.45676904 -10.8125 59.375 C-11.11392916 62.71457308 -11.11392916 62.71457308 -9.8125 66.375 C-8.08502837 67.92493208 -8.08502837 67.92493208 -5.88671875 69.2265625 C-5.07138672 69.74210693 -4.25605469 70.25765137 -3.41601562 70.78881836 C-2.12727539 71.57397827 -2.12727539 71.57397827 -0.8125 72.375 C0.00541016 72.87717041 0.82332031 73.37934082 1.66601562 73.89672852 C4.26571575 75.47248061 6.8793306 77.02188691 9.5 78.5625 C10.44625244 79.1191333 11.39250488 79.6757666 12.36743164 80.24926758 C18.9176622 84.08380119 25.49670568 87.86447839 32.125 91.5625 C33.33893433 92.24832153 33.33893433 92.24832153 34.57739258 92.94799805 C43.27003849 97.74296486 52.05585382 100.27062434 61.90625 97.65234375 C65.97943453 96.13716818 68.79625684 94.74016028 72 91.75 C75.40281637 89.21456819 76.50760885 89.02249484 80.5715332 88.57617188 C90.34725151 87.2073873 99.73254634 84.41288958 109.23046875 81.78125 C111.25039557 81.227665 113.27052583 80.67482188 115.29084778 80.12268066 C120.57724662 78.67630709 125.86140811 77.22193791 131.1449585 75.76519775 C139.60913658 73.43247469 148.07612185 71.11000698 156.54418373 68.79142761 C159.48408705 67.98490343 162.42266796 67.17369653 165.36112976 66.36193848 C167.17845544 65.86288461 168.99582094 65.36397569 170.81323242 64.86523438 C172.01906982 64.53008064 172.01906982 64.53008064 173.24926758 64.18815613 C188.27540814 60.08095923 207.5030186 56.39496818 222.23046875 63.17578125 C227.91190355 66.65721934 232.08294771 72.06134313 234.1875 78.375 C235.08400094 88.03075608 233.74728812 96.42350635 227.5625 104.125 C223.84291799 107.40200241 219.68769155 108.76931959 215.04052734 110.23925781 C214.24578695 110.49702625 213.45104656 110.75479469 212.63222313 111.0203743 C204.1817068 113.74124543 195.67818426 116.28378295 187.1640625 118.796875 C185.46877216 119.29981443 183.77356886 119.80304736 182.07844543 120.30654907 C178.50232436 121.36820898 174.92569132 122.42811731 171.34860229 123.48651123 C162.90942377 125.98356307 154.47277658 128.48914682 146.03587914 130.99389267 C143.20053358 131.8355472 140.36507914 132.67683421 137.52961731 133.51809692 C125.91641482 136.9646115 114.3084882 140.42821646 102.70703125 143.9140625 C102.00470619 144.12505585 101.30238113 144.33604919 100.5787735 144.55343628 C93.46055774 146.69222196 86.34349086 148.83480507 79.22705078 150.97949219 C76.96256643 151.66081171 74.69808084 152.34212708 72.43359375 153.0234375 C71.44462601 153.32230865 70.45565826 153.62117981 69.4367218 153.92910767 C64.74030889 155.34137161 60.03607808 156.7252542 55.31689453 158.05957031 C54.03022385 158.42492889 54.03022385 158.42492889 52.71755981 158.79766846 C48.36212808 159.79152959 44.07290049 159.80970336 39.625 159.75 C38.75681641 159.76160156 37.88863281 159.77320313 36.99414062 159.78515625 C27.19140522 159.74136145 19.07901557 156.70556559 10.5625 152.0625 C9.75820557 151.63155029 8.95391113 151.20060059 8.12524414 150.7565918 C-1.6030985 145.49035019 -11.11512075 139.84493298 -20.64599609 134.23242188 C-25.97667037 131.10553137 -31.33207432 128.02174493 -36.6875 124.9375 C-37.75194336 124.32398682 -38.81638672 123.71047363 -39.91308594 123.07836914 C-43.21262845 121.17679069 -46.51256127 119.27589076 -49.8125 117.375 C-54.0088131 114.95716338 -58.20470284 112.53859338 -62.40020752 110.11935425 C-64.08348222 109.14893527 -65.76707887 108.17907481 -67.45068359 107.20922852 C-68.47371582 106.61940186 -69.49674805 106.0295752 -70.55078125 105.421875 C-71.44837158 104.90463867 -72.34596191 104.38740234 -73.27075195 103.85449219 C-75.02195933 102.83515526 -76.7511764 101.77740083 -78.46044922 100.68920898 C-81.47476148 99.00496123 -83.23888441 99.23873769 -86.625 99.6875 C-87.60082031 99.80738281 -88.57664063 99.92726563 -89.58203125 100.05078125 C-90.31808594 100.15777344 -91.05414063 100.26476562 -91.8125 100.375 C-93.79372736 94.61963038 -95.56625262 88.85591356 -97.09667969 82.96533203 C-97.30354904 82.17879745 -97.5104184 81.39226288 -97.72355652 80.58189392 C-98.3971911 78.01640011 -99.06616811 75.44972497 -99.734375 72.8828125 C-100.20327878 71.08681485 -100.67221237 69.29082499 -101.14117432 67.49484253 C-102.1184272 63.74846832 -103.09292453 60.0013888 -104.06591797 56.25390625 C-105.31467863 51.44663256 -106.57404389 46.64220373 -107.83588791 41.8383503 C-108.80569973 38.13900439 -109.7680736 34.43775359 -110.72837067 30.73592758 C-111.18974398 28.96255199 -111.65388046 27.18989293 -112.12081146 25.41797256 C-112.77036165 22.95004397 -113.40942101 20.47962792 -114.04589844 18.00830078 C-114.24114609 17.27581619 -114.43639374 16.5433316 -114.63755798 15.78865051 C-115.48664705 12.44833008 -115.92611643 10.7158493 -114.8125 7.375 C-112.38127136 6.38230896 -112.38127136 6.38230896 -109.10620117 5.50561523 C-107.88370163 5.17194443 -106.66120209 4.83827362 -105.4016571 4.49449158 C-104.0530408 4.14042773 -102.70430818 3.78680665 -101.35546875 3.43359375 C-99.97291558 3.0624749 -98.59062 2.69039521 -97.20857239 2.31739807 C-94.30099134 1.53552665 -91.39131423 0.76221239 -88.47973633 -0.00463867 C-84.77933975 -0.97947758 -81.08340212 -1.97003481 -77.38880444 -2.96659946 C-74.5269893 -3.73749845 -71.66355365 -4.50222461 -68.79955482 -5.26496696 C-67.43870381 -5.62765207 -66.07818756 -5.99159601 -64.71803856 -6.35690498 C-40.9442573 -12.7230681 -20.81821333 -14.82642259 0 0 Z " fill="#000000" transform="translate(224.8125,336.625)"/>
<path d="M0 0 C5.59711051 3.28237328 10.70700956 7.50368985 15.73608398 11.59057617 C25.01452642 19.00919233 32.67853207 20.88543065 44.5 21.375 C57.03205119 21.93738014 68.02124028 22.91822387 77.1875 32.3125 C82.05724208 38.34592071 83.49187026 45.89906994 85.27734375 53.2890625 C85.49060303 54.16796143 85.7038623 55.04686035 85.92358398 55.95239258 C86.34057437 57.69667754 86.74560544 59.44387742 87.13696289 61.1940918 C89.36964615 70.71789597 93.50262914 76.20689108 100.5 82.9375 C101.15548828 83.57945313 101.81097656 84.22140625 102.48632812 84.8828125 C105.2674976 87.60540168 108.06285762 90.31284515 110.86328125 93.015625 C112.83832858 95.07837425 114.34184836 97.00233007 115.8125 99.4375 C116.42351562 100.43136719 116.42351562 100.43136719 117.046875 101.4453125 C120.51416742 107.81979626 120.1355677 116.3971115 118.26171875 123.234375 C116.67736716 127.08908608 114.84772199 130.78552733 112.94238281 134.49072266 C105.69684818 148.1624675 105.69684818 148.1624675 105.0625 163.3125 C105.22651655 164.7091875 105.38636694 166.10636796 105.54296875 167.50390625 C105.88270009 170.46918764 106.23712651 173.43219204 106.6015625 176.39453125 C107.77005574 186.32672377 107.12764466 195.36007196 100.8125 203.6875 C93.63295176 210.54070514 84.53675835 213.81588586 75.46289062 217.47460938 C65.50739036 221.63638862 60.11434107 226.45416595 54.5625 235.625 C53.60929986 237.13831468 52.65358666 238.65004948 51.6953125 240.16015625 C51.24188477 240.8783252 50.78845703 241.59649414 50.32128906 242.33642578 C45.34122681 250.1542349 40.45440246 256.09240643 31.27416992 258.84960938 C20.93593473 261.01334642 11.77037607 258.07466133 2.0625 254.80078125 C-9.86671746 250.99523662 -19.12681136 251.87451174 -30.875 255.8125 C-42.17282722 259.30899172 -51.00098264 261.82205182 -62.3125 256.875 C-68.13814655 253.56670203 -71.35070094 249.88707523 -74.9375 244.3125 C-76.42043913 242.03777255 -77.90843456 239.76656417 -79.40234375 237.49902344 C-80.44694259 235.90594636 -81.48003866 234.30525151 -82.5 232.69628906 C-89.52492446 221.84678703 -98.33542024 218.71584414 -110.01757812 213.86132812 C-118.48945731 210.23986846 -125.83787766 206.93166914 -129.8125 198.1875 C-130.20179688 197.35992187 -130.59109375 196.53234375 -130.9921875 195.6796875 C-134.11019605 187.8717818 -132.9623584 180.06157298 -131.9375 171.9375 C-129.87829887 155.12038625 -133.1677196 145.47539683 -140.85131836 130.55639648 C-141.23425049 129.80817627 -141.61718262 129.05995605 -142.01171875 128.2890625 C-142.35807373 127.61955566 -142.70442871 126.95004883 -143.0612793 126.26025391 C-146.1105872 119.48193726 -146.09879663 110.68629653 -144.21875 103.60546875 C-141.14361682 96.3268269 -136.08159293 91.36334096 -130.19140625 86.2890625 C-127.640662 84.05218799 -125.1456016 81.77613569 -122.6875 79.4375 C-121.87796875 78.67695312 -121.0684375 77.91640625 -120.234375 77.1328125 C-113.93546831 69.39844068 -112.37643921 59.6105857 -110.2265625 50.10742188 C-107.77801146 39.72740847 -104.83138952 32.59151938 -95.9375 26.3125 C-90.19808632 23.08850837 -84.34673747 22.24672697 -77.859375 21.91796875 C-76.69792969 21.84900391 -75.53648437 21.78003906 -74.33984375 21.70898438 C-71.92116621 21.57058946 -69.50185426 21.44283723 -67.08203125 21.32617188 C-54.58471215 20.54595251 -47.50868416 16.4021636 -37.8125 8.75 C-26.71191352 0.01854321 -14.2680145 -6.39854258 0 0 Z M-71.9375 61.3125 C-72.76894531 61.95058594 -73.60039062 62.58867188 -74.45703125 63.24609375 C-91.54060957 77.47792514 -100.58350864 100.38489075 -102.75 122 C-103.98690181 145.71167078 -96.85919187 168.82897329 -81.203125 186.828125 C-80.45546875 187.64796875 -79.7078125 188.4678125 -78.9375 189.3125 C-78.25171875 190.09109375 -77.5659375 190.8696875 -76.859375 191.671875 C-61.42118813 208.25363126 -38.88256863 217.0465341 -16.60546875 218.53515625 C8.33240504 219.19066608 31.05501618 209.86955283 49.43359375 193.15625 C65.84713941 177.43467507 75.90597353 155.21608859 76.40649414 132.50561523 C76.62683579 108.48143582 70.65482071 87.32788471 54.0625 69.3125 C53.25296875 68.41144531 52.4434375 67.51039062 51.609375 66.58203125 C36.64209959 50.71759459 15.18261767 39.77941003 -6.84375 39.109375 C-31.74904151 38.76003785 -52.65856156 45.06028909 -71.9375 61.3125 Z " fill="#000000" transform="translate(351.9375,17.6875)"/>
<path d="M0 0 C4.57399567 4.04656744 5.27576389 9.96362895 6.62182617 15.67700195 C6.94919224 16.99087062 7.27892011 18.30415262 7.61076355 19.61689758 C8.3460913 22.53639364 9.06956409 25.45851946 9.78631592 28.38262939 C11.05837419 33.54703653 12.39010418 38.69529656 13.72973633 43.8425293 C13.96947111 44.76404848 14.20920589 45.68556767 14.45620537 46.63501167 C14.95078191 48.53581653 15.44543401 50.43660174 15.94015884 52.33736801 C17.20578188 57.20866875 18.46166178 62.08247553 19.7175293 66.95629883 C19.96990923 67.93544691 20.22228916 68.91459499 20.48231697 69.92341423 C20.99542024 71.91418124 21.50847586 73.90496053 22.02148438 75.89575195 C24.0835713 83.89760924 26.14706341 91.89910353 28.21179771 99.90027809 C28.9231125 102.65792811 29.63345517 105.41582717 30.34370422 108.17375183 C30.78234623 109.87499436 31.2211573 111.5761933 31.66015625 113.27734375 C31.86595464 114.07492851 32.07175303 114.87251328 32.28378773 115.69426727 C33.62394976 120.87082658 35.0097381 126.0326839 36.46037292 131.17956543 C37.13802198 133.81457172 37.45169172 136.31326833 37.48510742 139.0324707 C37.51604492 139.88454102 37.54698242 140.73661133 37.57885742 141.61450195 C36.69940965 145.47365764 35.10688282 147.88456865 31.98510742 150.2199707 C27.98486741 151.91878939 23.88234333 152.97821064 19.67260742 154.0324707 C18.56981445 154.33088867 17.46702148 154.62930664 16.33081055 154.93676758 C1.36612413 158.8945921 1.36612413 158.8945921 -4.76489258 157.1574707 C-10.60381908 153.67657221 -12.43832697 148.66105633 -14.08480835 142.36378479 C-14.30254913 141.48335007 -14.52028992 140.60291534 -14.74462891 139.69580078 C-14.9875618 138.7531839 -15.23049469 137.81056702 -15.48078918 136.83938599 C-16.28043909 133.7254401 -17.06368055 130.60761121 -17.84692383 127.48950195 C-18.40634301 125.29805356 -18.96680125 123.10687017 -19.52824402 120.91593933 C-21.00705043 115.13384912 -22.47207887 109.3483547 -23.93414307 103.56201172 C-25.39910074 97.77345193 -26.87621485 91.98799953 -28.3527832 86.20239258 C-30.05876338 79.51676159 -31.76269382 72.83065307 -33.45437622 66.14138794 C-35.72064598 57.18454024 -37.98743747 48.23023692 -40.39916992 39.3112793 C-40.73526779 38.0589299 -41.07136566 36.80658051 -41.41764832 35.51628113 C-42.00007012 33.36120761 -42.59217551 31.20870714 -43.19770813 29.06001282 C-45.12919888 21.89958188 -46.82664059 14.56121545 -43.15942383 7.7980957 C-39.47951524 4.11689274 -34.61603384 3.17695027 -29.70239258 1.9699707 C-28.79038086 1.72762695 -27.87836914 1.4852832 -26.9387207 1.2355957 C-24.30283687 0.54025144 -21.6599931 -0.12079435 -19.01489258 -0.7800293 C-18.25402344 -0.98378174 -17.4931543 -1.18753418 -16.70922852 -1.39746094 C-10.29715184 -3.09866968 -5.92558806 -3.49853936 0 0 Z M-21.95239258 24.3449707 C-24.2886162 27.04582388 -24.2886162 27.04582388 -24.13989258 30.2824707 C-22.73862513 33.9413357 -21.41136684 35.29015578 -18.01489258 37.2199707 C-14.76328934 37.2199707 -13.314096 36.42468883 -10.63989258 34.5949707 C-8.67114683 32.20941467 -8.67114683 32.20941467 -9.07739258 28.6574707 C-10.04747835 24.6491238 -10.04747835 24.6491238 -13.01489258 22.2199707 C-17.10803052 21.50812063 -18.55766087 21.88920734 -21.95239258 24.3449707 Z " fill="#000000" transform="translate(86.014892578125,322.780029296875)"/>
<path d="M0 0 C5.94 0 11.88 0 18 0 C21 7 21 7 21 10 C22.19625 10.268125 23.3925 10.53625 24.625 10.8125 C27.50985143 11.51463315 29.51424989 12.27224994 32.1875 13.6875 C35.45418404 15.21195255 36.64279179 15.1485186 40 14 C40.680625 13.62875 41.36125 13.2575 42.0625 12.875 C44 12 44 12 45.7890625 12.15234375 C48.96344381 13.36937687 50.87916387 15.33163622 53.3125 17.6875 C54.21613281 18.53699219 55.11976563 19.38648437 56.05078125 20.26171875 C58 23 58 23 57.91796875 26.01953125 C57 29 57 29 55.7890625 31.4921875 C54.66410891 35.06753506 55.79764852 36.79503577 57.375 40.125 C60 45.7540107 60 45.7540107 60 49 C63.3 49.99 66.6 50.98 70 52 C70 57.94 70 63.88 70 70 C68.618125 70.391875 67.23625 70.78375 65.8125 71.1875 C62.30224058 72.69663515 61.17311624 73.68080432 59.32421875 77.08984375 C58.096498 80.36738736 57.01125383 83.65022169 56 87 C55.67 87.66 55.34 88.32 55 89 C55.495 90.093125 55.99 91.18625 56.5 92.3125 C58.09876931 96.24280788 58.35209427 97.13521553 57 101 C54.71484375 103.67578125 54.71484375 103.67578125 51.9375 106.3125 C50.55884766 107.63701172 50.55884766 107.63701172 49.15234375 108.98828125 C48.44207031 109.65214844 47.73179687 110.31601563 47 111 C46.40832031 110.77183594 45.81664062 110.54367188 45.20703125 110.30859375 C44.41683594 110.02113281 43.62664062 109.73367187 42.8125 109.4375 C42.03519531 109.14746094 41.25789063 108.85742188 40.45703125 108.55859375 C37.55818821 107.8995563 35.85857159 108.23712967 33 109 C32.09121094 109.20496094 31.18242187 109.40992188 30.24609375 109.62109375 C24.4280987 111.24731025 24.4280987 111.24731025 20.3984375 115.48828125 C19.1436708 118.53763761 19.1436708 118.53763761 18 123 C12.06 123 6.12 123 0 123 C-0.433125 121.4325 -0.86625 119.865 -1.3125 118.25 C-2.637697 114.87980474 -3.4012288 113.35834153 -6.5390625 111.48046875 C-9.34925148 110.46925519 -12.08729398 109.65690817 -15 109 C-15.84046875 108.77570313 -16.6809375 108.55140625 -17.546875 108.3203125 C-20.42593752 107.94438395 -22.10844843 108.42852553 -24.8125 109.4375 C-25.60269531 109.72496094 -26.39289063 110.01242188 -27.20703125 110.30859375 C-27.79871094 110.53675781 -28.39039063 110.76492187 -29 111 C-30.87709699 109.31211439 -32.7238484 107.60391478 -34.5625 105.875 C-35.09552734 105.400625 -35.62855469 104.92625 -36.17773438 104.4375 C-37.69140625 102.9921875 -37.69140625 102.9921875 -40 100 C-39.91329138 96.46228824 -39.15090163 94.33054644 -37.6875 91.125 C-36.79031274 87.04687608 -37.96774532 85.47903177 -39.97265625 81.96875 C-41.32320216 79.3806316 -41.71147948 76.88520516 -42 74 C-42.62648438 73.79503906 -43.25296875 73.59007812 -43.8984375 73.37890625 C-44.71570313 73.10949219 -45.53296875 72.84007812 -46.375 72.5625 C-47.18710937 72.29566406 -47.99921875 72.02882813 -48.8359375 71.75390625 C-51 71 -51 71 -53 70 C-53 64.39 -53 58.78 -53 53 C-44.25 49 -44.25 49 -42 49 C-41.83564453 48.14728516 -41.83564453 48.14728516 -41.66796875 47.27734375 C-40.86154599 43.35013049 -40.04400019 39.88146156 -38.1875 36.3125 C-36.57177652 33.00117863 -36.57177652 33.00117863 -38.375 29.875 C-38.91125 28.92625 -39.4475 27.9775 -40 27 C-39.79302895 22.22374501 -37.5269352 19.93102042 -34.25 16.625 C-33.38890625 15.73039062 -32.5278125 14.83578125 -31.640625 13.9140625 C-29 12 -29 12 -26.30078125 12.140625 C-24 13 -24 13 -21.9375 14.125 C-19.43438739 15.25543795 -18.59622389 14.80843271 -16 14 C-13.42779113 12.98818324 -10.88585897 11.91567875 -8.33984375 10.83984375 C-6 10 -6 10 -3 10 C-2.814375 8.63875 -2.814375 8.63875 -2.625 7.25 C-2 4 -2 4 0 0 Z M-13 39 C-18.51156128 46.00957537 -22.7188457 53.73106723 -22.28125 62.90234375 C-20.9562111 72.78492558 -16.91080847 80.08691248 -9.125 86.3125 C-1.4354668 91.63713903 5.65345181 93.05194009 15 92 C23.61836805 89.99953209 30.8693382 84.90893748 35.63671875 77.43359375 C39.85870302 69.31625436 41.22724912 61.90406474 38.75 52.9375 C35.83580869 44.07461543 29.99715497 37.76856711 22.12890625 32.82421875 C11.0136361 27.78051552 -4.46507436 30.22799309 -13 39 Z " fill="#000000" transform="translate(330,85)"/>
<path d="M0 0 C6.89267882 14.16906413 13.76136248 28.35151685 20.45571899 42.61560059 C21.29853964 44.40781404 22.14860095 46.19661668 22.9987793 47.98535156 C23.51093994 49.08202148 24.02310059 50.17869141 24.55078125 51.30859375 C25.22620972 52.74416626 25.22620972 52.74416626 25.9152832 54.20874023 C27.06278101 57.16155194 27.66926177 59.85245082 28 63 C27 64 27 64 25.0859375 64.01953125 C16.62173565 63.37312967 8.35324201 61.91750222 0.01123047 60.37231445 C-0.95024902 60.19659912 -1.91172852 60.02088379 -2.90234375 59.83984375 C-3.76335693 59.67863037 -4.62437012 59.51741699 -5.51147461 59.35131836 C-8.04191908 58.99408206 -10.44806408 58.9385936 -13 59 C-13.42821045 59.75095947 -13.8564209 60.50191895 -14.29760742 61.27563477 C-15.90675722 64.09343968 -17.51928437 66.90927741 -19.1340332 69.72387695 C-19.82872637 70.93632985 -20.52211619 72.14953059 -21.21411133 73.36352539 C-24.87483345 79.78366549 -28.53559314 86.09658044 -33 92 C-34.80395508 91.85644531 -34.80395508 91.85644531 -37 91 C-38.59643555 88.55761719 -38.59643555 88.55761719 -40.13671875 85.296875 C-40.41783005 84.71070908 -40.69894135 84.12454315 -40.98857117 83.52061462 C-41.90276622 81.60359352 -42.79545167 79.67741374 -43.6875 77.75 C-44.30923433 76.43296019 -44.93179734 75.11631125 -45.55517578 73.80004883 C-50.64904501 62.98752014 -55.43646932 52.04664172 -60 41 C-58.65808594 40.94392578 -58.65808594 40.94392578 -57.2890625 40.88671875 C-42.75110132 40.09627523 -31.23216182 36.75133217 -20.84448242 26.11816406 C-17.37469808 22.13353813 -14.59544168 17.69061353 -11.75 13.25 C-10.5395781 11.37818722 -9.3261588 9.50830844 -8.109375 7.640625 C-7.58311523 6.82110352 -7.05685547 6.00158203 -6.51464844 5.15722656 C-2.89361702 0 -2.89361702 0 0 0 Z " fill="#000000" transform="translate(428,251)"/>
<path d="M0 0 C3.81912097 1.49885679 5.47509348 3.61943006 7.8125 6.9375 C8.50988281 7.92234375 9.20726562 8.9071875 9.92578125 9.921875 C11.86595735 12.80108172 13.69154629 15.72444998 15.5 18.6875 C22.18898874 29.20731898 31.23026311 36.40298133 43.46875 39.65625 C46.74552095 40.10124359 50.01283858 40.3466343 53.3125 40.5625 C54.49352295 40.63976318 55.6745459 40.71702637 56.89135742 40.79663086 C57.91720947 40.86374268 58.94306152 40.93085449 60 41 C55.40110025 51.61277612 50.72324457 62.18582433 45.85571289 72.6784668 C45.1490666 74.20867932 44.44839126 75.74166088 43.75317383 77.27709961 C42.73063852 79.53377002 41.68982755 81.7811434 40.64453125 84.02734375 C40.3371553 84.71569809 40.02977936 85.40405243 39.71308899 86.11326599 C37.50195006 90.78915347 37.50195006 90.78915347 34.7722168 91.93579102 C34.18738525 91.95697998 33.60255371 91.97816895 33 92 C28.18194315 85.01415262 23.86727811 77.78399205 19.625 70.4375 C18.98433594 69.33341797 18.34367187 68.22933594 17.68359375 67.09179688 C16.11980769 64.39601642 14.55867406 61.69873828 13 59 C4.25809415 59.64210933 -4.22519409 61.01871758 -12.83398438 62.62695312 C-17.61566806 63.4954825 -22.11465771 64.25712328 -27 64 C-28.30164733 59.64787836 -27.69754486 57.53106527 -25.67578125 53.51953125 C-25.14710449 52.44985107 -24.61842773 51.3801709 -24.07373047 50.27807617 C-23.49252441 49.13443604 -22.91131836 47.9907959 -22.3125 46.8125 C-21.41498767 45.00834233 -20.52274375 43.20164417 -19.63092041 41.39466858 C-19.01632316 40.1497396 -18.40021471 38.90555561 -17.78265381 37.66209412 C-14.51307553 31.0645408 -11.43690079 24.38370439 -8.375 17.6875 C-2.60926539 5.08719191 -2.60926539 5.08719191 0 0 Z " fill="#000000" transform="translate(250,251)"/>
</svg>
